<svg width="2201" height="2201" viewBox="0 0 2201 2201" fill="none" xmlns="http://www.w3.org/2000/svg">
<path d="M1142.86 787.694C1147.21 787.703 1151.56 787.712 1157.26 787.577C1173.54 784.952 1188.48 782.473 1203.6 779.964C1203.6 777.412 1203.61 775.849 1203.59 774.287C1202.95 719.934 1202.79 665.57 1201.47 611.234C1200.6 575.825 1199.67 540.21 1190.15 505.766C1187.43 495.932 1181.39 487.018 1176.88 477.682C1176.88 477.682 1176.82 477.807 1176.74 477.389C1176.21 476.616 1175.76 476.261 1175.3 475.906C1175.3 475.906 1175.3 476.066 1175.23 475.674C1174.73 474.958 1174.3 474.633 1173.87 474.308C1173.64 474.603 1173.41 474.897 1173.37 474.4C1173.24 473.163 1172.82 472.868 1172.29 472.722C1172.07 472.963 1171.84 473.205 1171.79 472.742C1171.52 471.756 1171.08 471.474 1170.65 471.192C1170.65 471.192 1170.26 471.715 1170.17 471.068C1168.04 469.139 1166 467.857 1163.97 466.575C1163.97 466.575 1163.94 466.869 1163.84 466.468C1163.16 465.887 1162.57 465.708 1161.99 465.528C1161.99 465.528 1162.04 465.663 1161.78 465.2C1158.46 463.233 1155.53 461.29 1152.32 460.308C1142.53 457.321 1132.54 455.004 1122.8 451.864C1112.73 448.612 1111.02 444.101 1115.39 434.637C1115.39 434.637 1115.11 434.601 1115.52 434.574C1116.28 434.062 1116.63 433.577 1116.97 433.091C1116.97 433.091 1116.84 433.103 1117.36 432.951C1123.45 429.668 1129.02 426.536 1135.16 423.385C1162.55 413.328 1190.26 410.299 1218.67 412.867C1248.64 415.577 1276.52 425.405 1303.57 438.014C1303.57 438.014 1303.56 437.857 1303.82 438.272C1305.97 439.557 1307.87 440.427 1309.76 441.297C1309.76 441.297 1309.79 441.146 1310.01 441.525C1311.05 442.229 1311.86 442.554 1312.68 442.88C1312.68 442.88 1312.73 442.939 1313.13 443.302C1316.91 445.488 1320.3 447.311 1323.69 449.134C1323.69 449.134 1323.73 449.251 1324.13 449.611C1326.94 451.312 1329.34 452.652 1331.74 453.993C1331.74 453.993 1331.84 453.704 1332.05 454.192C1333.6 455.499 1334.93 456.318 1336.27 457.137C1336.48 456.839 1336.69 456.541 1336.91 457.051C1338.01 458.459 1339.1 459.058 1340.2 459.657C1340.2 459.657 1340.17 459.515 1340.37 459.966C1342.77 461.957 1344.98 463.498 1347.19 465.038C1347.19 465.038 1347.23 465.129 1347.52 465.447C1348.27 465.995 1348.74 466.226 1349.21 466.457C1349.21 466.457 1349.21 466.278 1349.36 466.723C1351.11 468.373 1352.69 469.577 1354.27 470.782C1354.27 470.782 1354.3 470.577 1354.36 471.003C1354.95 471.725 1355.48 472.021 1356 472.317C1356 472.317 1356 472.063 1356.04 472.495C1356.57 473.261 1357.06 473.594 1357.56 473.927C1357.57 474.432 1357.79 474.817 1358.73 475.588C1359.75 476.402 1360.26 476.707 1360.77 477.012C1360.77 477.012 1360.76 476.785 1360.77 477.236C1361.3 477.987 1361.82 478.286 1362.33 478.585C1362.33 478.585 1362.29 478.418 1362.36 478.906C1363.7 480.851 1364.95 482.308 1366.21 483.764C1366.21 483.764 1366.33 483.745 1366.51 484.327C1373.74 495.531 1374.27 507.062 1371.13 518.958C1367.85 531.391 1364.01 543.681 1360.89 556.152C1348.44 605.84 1344.51 656.639 1341.57 707.55C1340.74 721.918 1340.18 736.302 1339.42 752.271C1355.65 747.369 1371.06 743.926 1385.52 738.091C1414.68 726.314 1443.6 713.821 1472.11 700.53C1500.34 687.368 1528.15 685.97 1556.35 699.599C1561.54 702.104 1566.42 705.23 1571.45 708.069C1571.45 708.069 1571.83 707.413 1571.95 708.11C1573.35 709.639 1574.64 710.473 1575.92 711.307C1575.92 711.307 1575.96 711.428 1576.23 711.753C1576.85 712.484 1577.28 712.733 1577.81 712.823C1577.81 712.823 1577.8 712.685 1578.02 713.095C1579.27 714.216 1580.31 714.928 1581.35 715.64C1581.35 715.64 1581.34 715.49 1581.5 715.967C1584.63 719.327 1587.61 722.211 1590.59 725.094C1590.59 725.094 1590.93 724.666 1590.94 725.363C1592.85 728.575 1594.82 731.034 1596.62 733.614C1613.31 757.585 1613.5 781.491 1597.21 803.384C1597.21 803.384 1597.38 803.413 1596.96 803.477C1596.24 804.04 1595.92 804.539 1595.61 805.037C1595.61 805.037 1595.77 805.016 1595.29 805.126C1592.82 806.945 1590.82 808.654 1588.81 810.363C1588.81 810.363 1588.66 810.347 1588.15 810.664C1574.22 816.892 1561.29 824.626 1547.29 828.373C1504.42 839.851 1461.23 850.169 1417.99 860.204C1391.43 866.37 1364.56 871.193 1336.97 876.793C1336.97 880.206 1336.94 883.302 1336.97 886.398C1337.91 1003.16 1338.65 1119.92 1339.87 1236.68C1340.5 1296.63 1341.86 1356.59 1343.37 1416.53C1343.51 1422.37 1347.1 1428.13 1349.08 1433.92C1349.08 1433.92 1349.28 1433.67 1349.31 1434.25C1350.81 1436.71 1352.29 1438.59 1353.76 1440.47C1353.76 1440.47 1353.77 1440.3 1353.88 1440.79C1355.58 1443.06 1357.16 1444.85 1358.74 1446.63C1358.74 1446.63 1358.77 1446.33 1358.77 1446.78C1359.43 1447.9 1360.08 1448.56 1360.73 1449.23C1360.73 1449.23 1360.75 1449.13 1360.78 1449.61C1361.67 1451 1362.53 1451.91 1363.4 1452.82C1363.4 1452.82 1363.43 1452.65 1363.47 1453.06C1363.9 1453.87 1364.29 1454.28 1364.69 1454.68C1364.69 1454.68 1364.75 1454.5 1364.87 1454.97C1365.64 1456.04 1366.29 1456.65 1366.94 1457.26C1366.94 1457.26 1366.96 1457.13 1367.05 1457.64C1369.73 1460.96 1372.33 1463.79 1374.92 1466.62C1374.92 1466.62 1374.93 1466.51 1375.04 1467.01C1377.63 1469.96 1380.11 1472.4 1382.58 1474.84C1382.58 1474.84 1382.59 1474.64 1382.67 1475.09C1383.69 1476.38 1384.63 1477.23 1385.58 1478.07C1385.58 1478.07 1385.59 1477.93 1385.66 1478.34C1386.19 1479.09 1386.64 1479.44 1387.08 1479.78C1387.08 1479.78 1387.09 1479.59 1387.15 1480C1387.67 1480.75 1388.12 1481.1 1388.57 1481.44C1388.57 1481.44 1388.58 1481.27 1388.66 1481.66C1389.18 1482.38 1389.62 1482.7 1390.07 1483.03C1390.07 1483.03 1390.15 1482.84 1390.2 1483.25C1390.53 1484.13 1390.91 1484.46 1391.41 1484.67C1391.41 1484.67 1391.46 1484.72 1391.64 1485.06C1392.13 1485.81 1392.51 1486.09 1392.98 1486.25C1392.98 1486.25 1393.01 1486.33 1393.22 1486.67C1393.76 1487.42 1394.17 1487.69 1394.67 1487.81C1394.67 1487.81 1394.9 1487.67 1395.06 1488.2C1397.13 1490.48 1399.04 1492.23 1400.95 1493.99C1400.95 1493.99 1400.97 1494.06 1401.18 1494.42C1401.72 1495.22 1402.15 1495.5 1402.68 1495.63C1402.68 1495.63 1403.1 1495.15 1403.06 1495.74C1403.47 1496.6 1403.94 1496.88 1404.4 1497.16C1404.4 1497.16 1404.59 1496.85 1404.7 1497.43C1407.44 1500.21 1410.07 1502.41 1412.69 1504.61C1412.69 1504.61 1412.69 1504.49 1412.8 1504.9C1413.6 1505.82 1414.3 1506.33 1415 1506.84C1415 1506.84 1415.03 1506.99 1415.32 1507.31C1415.95 1508.04 1416.38 1508.29 1416.91 1508.37C1416.91 1508.37 1416.9 1508.2 1417.1 1508.64C1419.68 1510.95 1422.06 1512.82 1424.44 1514.69C1424.44 1514.69 1424.45 1514.84 1424.83 1515.24C1427.69 1517.42 1430.16 1519.19 1432.63 1520.95C1432.87 1520.69 1433.12 1520.42 1433.29 1520.97C1435.18 1523.03 1437.12 1524.29 1439.06 1525.55C1439.25 1525.32 1439.44 1525.09 1439.61 1525.6C1440.94 1527.19 1442.27 1528.03 1443.61 1528.87C1443.61 1528.87 1443.75 1528.73 1444.07 1529.2C1464.3 1543.54 1485.78 1554.19 1509.66 1561.25C1524.89 1564.07 1539.43 1567.68 1554.19 1569.22C1605.73 1574.61 1654.83 1564.73 1702 1543.93C1705.14 1542.55 1708.48 1541.63 1711.74 1540.49C1712.31 1541.16 1712.89 1541.84 1713.46 1542.51C1711.31 1545.71 1709.16 1548.92 1707.01 1552.12C1707.01 1552.12 1706.66 1552.14 1706.38 1552.41C1705.77 1552.91 1705.57 1553.22 1705.5 1553.61C1705.5 1553.61 1705.18 1553.62 1704.72 1554.03C1701.24 1557.21 1698.22 1559.98 1694.96 1562.78C1694.72 1562.81 1694.49 1563.25 1694.49 1563.25C1694.49 1563.25 1694.31 1563.24 1693.85 1563.52C1691.67 1565.24 1689.96 1566.68 1688.25 1568.11C1688.25 1568.11 1688.14 1568.11 1687.63 1568.38C1664.64 1585.16 1639.52 1595.98 1612.36 1603.12C1611.07 1603.35 1610.14 1603.67 1608.47 1603.99C1606.83 1604.35 1605.93 1604.69 1604.67 1604.96C1603.62 1605.08 1602.92 1605.29 1601.56 1605.44C1599.6 1605.75 1598.32 1606.11 1596.55 1606.39C1594.46 1606.62 1592.85 1606.94 1590.76 1607.16C1588.76 1607.51 1587.24 1607.96 1585.29 1608.18C1583.29 1608.19 1581.72 1608.42 1579.58 1608.57C1578.29 1608.66 1577.55 1608.83 1576.1 1608.88C1557.59 1608.91 1539.8 1609.05 1521.37 1608.98C1518.93 1608.74 1517.13 1608.72 1514.73 1608.51C1498.71 1606.98 1483.31 1605.58 1467.9 1604.3C1419.22 1600.26 1372.16 1606.57 1327.26 1626.46C1325.33 1627.32 1323.84 1629.19 1322.15 1630.59C1318.55 1631.59 1314.94 1632.58 1310.21 1633.9C1294.22 1640.88 1279.4 1647.65 1264.49 1654.2C1211.37 1677.55 1156.39 1694.17 1098.02 1695.77C1074.07 1696.43 1050.03 1693.54 1025.49 1692.02C983.15 1684.44 944.764 1668.88 910.249 1644.02C910.249 1644.02 909.863 1644.46 909.757 1643.83C908.076 1642.1 906.501 1641 904.926 1639.9C904.926 1639.9 904.896 1640.02 904.743 1639.58C903.828 1638.67 903.066 1638.19 902.304 1637.71C902.092 1637.98 901.88 1638.24 901.72 1637.69C899.134 1634.72 896.496 1632.57 893.858 1630.42C893.858 1630.42 893.838 1630.57 893.766 1630.15C893.196 1629.43 892.698 1629.13 892.2 1628.83C892.2 1628.83 892.224 1628.99 892.159 1628.55C891.395 1627.59 890.696 1627.05 889.997 1626.52C889.997 1626.52 889.978 1626.42 889.785 1626.1C889.316 1625.39 888.948 1625.13 888.485 1625.01C888.485 1625.01 888.461 1624.85 888.231 1624.54C887.723 1623.83 887.355 1623.57 886.898 1623.44C886.898 1623.44 886.879 1623.28 886.653 1622.96C886.151 1622.26 885.787 1622 885.333 1621.86C885.333 1621.86 885.314 1621.69 885.082 1621.37C884.58 1620.68 884.222 1620.42 883.776 1620.29C883.776 1620.29 883.768 1620.08 883.533 1619.76C883.035 1619.06 882.679 1618.81 882.23 1618.71C882.23 1618.71 882.218 1618.54 881.9 1618.09C879.573 1615.42 877.565 1613.2 875.557 1610.98C875.557 1610.98 875.451 1611.14 875.331 1610.61C872.2 1606.16 869.19 1602.25 866.18 1598.34C865.924 1598.55 865.669 1598.75 865.62 1598.14C853.943 1579.2 845.049 1559.81 840.298 1538.56C835.56 1517.36 835.182 1495.99 836.908 1474.47C836.953 1472.07 836.998 1469.67 837.136 1466.36C837.327 1464.81 837.425 1464.18 837.524 1463.54C838.181 1462.88 838.838 1462.23 839.835 1460.31C845.494 1433.42 857.627 1410.96 872.362 1389.71C872.137 1389.53 871.912 1389.35 872.452 1389.19C875.068 1386.85 876.92 1384.49 878.771 1382.12C878.771 1382.12 878.858 1382.1 879.296 1381.8C881.446 1379.46 883.157 1377.43 884.869 1375.4C884.869 1375.4 884.367 1374.97 885.078 1374.97C889.757 1371.03 893.725 1367.09 897.693 1363.14C897.693 1363.14 897.687 1363.05 898.207 1362.83C921.101 1344.29 945.764 1330.04 973.297 1321.04C1048.36 1296.5 1122.34 1301.5 1195.44 1329.47C1197.73 1330.35 1200.07 1331.1 1202.99 1332.12C1202.99 1187.68 1202.99 1044.31 1202.99 900.004C1192.1 901.628 1181.79 903.167 1170.9 904.63C1164.42 905.194 1158.55 906.181 1152.64 906.414C1122.8 907.593 1092.95 909.186 1063.1 909.382C1047.18 909.486 1031.26 907.058 1015.34 905.773C1015.34 905.773 1015.36 905.926 1015.14 905.41C1005.59 903.081 996.265 901.268 986.942 899.454C986.942 899.454 986.965 899.624 986.805 899.117C970.426 891.606 954.206 884.602 937.986 877.598C937.986 877.598 937.969 877.695 937.7 877.237C934.136 874.728 930.841 872.679 927.545 870.629C927.329 870.879 927.112 871.129 926.951 870.621C925.7 869.027 924.395 868.191 923.089 867.355C923.089 867.355 923.047 867.212 922.673 866.827C919.915 864.663 917.531 862.884 915.148 861.105C915.148 861.105 915.112 860.977 914.751 860.567C908.838 854.719 903.286 849.28 897.734 843.842C897.465 844.077 897.196 844.313 897.129 843.717C895.359 840.576 893.384 838.265 891.411 835.955C891.143 836.163 890.876 836.371 890.821 835.795C889.342 832.878 887.651 830.746 885.96 828.613C885.96 828.613 885.905 828.705 885.89 828.239C885.1 826.821 884.324 825.87 883.549 824.919C883.311 825.067 883.073 825.216 883.005 824.603C876.54 809.67 869.36 795.72 863.47 781.245C859.87 772.396 857.056 762.844 861.038 752.884C861.282 752.765 861.396 752.233 861.396 752.233C861.15 752.129 860.904 752.024 861.399 751.871C862.455 751.373 862.77 750.923 863.086 750.474C863.086 750.474 862.797 750.464 863.378 750.352C869.658 750.195 875.356 750.151 881.054 750.106C881.054 750.106 881.018 749.975 881.244 750.41C883.23 751.846 884.988 752.846 886.747 753.847C886.973 753.563 887.2 753.278 887.401 753.797C888.785 755.388 890.193 756.176 891.602 756.964C891.602 756.964 891.756 756.692 891.95 757.205C894.227 758.84 896.31 759.962 898.392 761.084C898.392 761.084 898.394 760.973 898.659 761.431C901.823 763.375 904.722 764.862 907.622 766.349C907.622 766.349 907.596 766.147 907.784 766.538C908.824 767.298 909.675 767.667 910.527 768.036C910.527 768.036 910.542 767.901 910.765 768.24C911.555 768.711 912.123 768.843 912.69 768.975C912.69 768.975 912.626 768.84 912.903 769.272C915.116 770.493 917.053 771.281 918.989 772.069C918.989 772.069 918.961 771.967 919.284 772.4C943.11 783.69 967.725 791.211 993.494 792.95C1021.18 794.819 1049 794.71 1077.49 795.571C1097.42 794.033 1116.64 792.474 1135.83 790.637C1138.24 790.406 1140.52 788.711 1142.86 787.694ZM938.039 1449.92C937.651 1450.22 937.345 1450.59 936.433 1451.37C936.051 1451.72 935.749 1452.13 934.85 1452.95C934.472 1453.3 934.172 1453.71 933.26 1454.57C932.959 1455 932.658 1455.43 931.681 1456.25C931.282 1456.59 930.983 1457.01 930.097 1457.91C929.82 1458.36 929.543 1458.81 928.294 1459.73C900.401 1492.95 905.719 1538.06 931.118 1569.19C932.667 1570.91 934.217 1572.64 936.039 1575.11C936.456 1575.41 936.872 1575.72 937.575 1576.74C937.868 1577.2 938.273 1577.5 939.105 1578.37C939.418 1578.81 939.837 1579.1 940.672 1579.95C940.984 1580.4 941.404 1580.69 942.249 1581.53C942.56 1581.97 942.978 1582.26 944.016 1583.29C946.955 1585.64 949.894 1588 953.425 1591.15C955.351 1592.44 957.278 1593.74 959.806 1595.81C961.222 1596.62 962.638 1597.44 964.668 1599.01C966.086 1599.77 967.505 1600.53 969.591 1602.1C989.9 1614.91 1012.33 1621.95 1035.74 1626.21C1085.08 1635.17 1133.96 1630.68 1181.35 1616.37C1232.78 1600.85 1283.2 1582 1335.36 1564.63C1347.67 1561.53 1359.99 1558.43 1374.04 1554.9C1364.21 1548.76 1355.83 1543.52 1346.82 1537.58C1345.45 1536.77 1344.08 1535.96 1342.11 1534.42C1341.03 1533.8 1339.95 1533.19 1338.29 1531.69C1332.89 1528.13 1327.5 1524.58 1321.39 1520.25C1316.89 1517.37 1312.39 1514.48 1307.28 1510.82C1305.89 1509.98 1304.49 1509.15 1302.47 1507.58C1301.1 1506.76 1299.73 1505.95 1297.66 1504.37C1292.17 1500.94 1286.69 1497.51 1280.56 1493.33C1279.13 1492.54 1277.69 1491.75 1275.58 1490.17C1271.94 1488 1268.31 1485.83 1264.07 1482.82C1261.38 1481.29 1258.69 1479.76 1255.31 1477.53C1253.86 1476.79 1252.42 1476.06 1250.49 1474.65C1249.97 1474.49 1249.45 1474.33 1248.28 1473.33C1240.79 1469.2 1233.29 1465.07 1225.03 1460.21C1219.91 1457.52 1214.84 1454.76 1209.68 1452.16C1170.44 1432.37 1129.57 1417.43 1085.46 1413.95C1067.59 1412.54 1049.47 1413.77 1031.49 1414.32C1006.41 1415.07 982.94 1421.87 960.075 1434.53C957.98 1435.82 955.884 1437.11 952.885 1438.68C951.384 1439.8 949.884 1440.93 947.551 1442.36C946.919 1442.96 946.287 1443.56 944.69 1444.4C943.2 1445.69 941.709 1446.99 939.574 1448.54C939.166 1448.8 938.87 1449.15 938.039 1449.92Z" fill="#FFFFFF"/>
<path d="M1338.81 1756.55C1338.76 1756.04 1338.52 1755.66 1337.59 1754.9C1336.41 1753.88 1335.72 1753.36 1335.04 1752.83C1335.04 1752.83 1335 1752.55 1334.72 1752.28C1334.19 1751.67 1333.86 1751.45 1333.45 1751.35C1333.45 1751.35 1333.43 1751.1 1333.16 1750.8C1332.64 1750.15 1332.29 1749.91 1331.87 1749.77C1331.87 1749.77 1331.84 1749.52 1331.57 1749.23C1331.04 1748.59 1330.71 1748.34 1330.29 1748.19C1330.29 1748.19 1330.27 1747.94 1329.99 1747.65C1329.46 1747.01 1329.12 1746.76 1328.71 1746.62C1328.71 1746.62 1328.71 1746.35 1328.47 1746.05C1327.99 1745.4 1327.67 1745.17 1327.27 1745.05C1327.27 1745.05 1327.27 1744.74 1326.87 1744.3C1324.98 1742.22 1323.49 1740.56 1321.99 1738.91C1321.99 1738.91 1321.97 1739.04 1321.87 1738.6C1321.11 1737.52 1320.47 1736.88 1319.82 1736.24C1319.82 1736.24 1319.78 1736.34 1319.68 1735.81C1316.52 1730.85 1313.47 1726.42 1310.42 1722C1310.42 1722 1310.36 1722.09 1310.32 1721.53C1305.38 1708.34 1300.26 1695.79 1295.83 1683C1295.19 1681.18 1297.25 1676.78 1299.1 1675.99C1317.14 1668.23 1335.98 1664.44 1355.74 1666.09C1375.9 1667.77 1393.47 1676.14 1410.22 1686.75C1410.22 1686.75 1410.3 1686.97 1410.68 1687.25C1411.55 1687.71 1412.04 1687.9 1412.53 1688.09C1412.53 1688.09 1412.51 1687.81 1412.6 1688.22C1413.26 1688.84 1413.82 1689.05 1414.38 1689.26C1414.38 1689.26 1414.34 1689.12 1414.54 1689.58C1416.71 1691.32 1418.7 1692.6 1420.69 1693.88C1420.69 1693.88 1420.71 1693.78 1420.86 1694.21C1421.77 1695.15 1422.54 1695.66 1423.3 1696.17C1423.3 1696.17 1423.31 1696.03 1423.53 1696.43C1424.77 1697.49 1425.8 1698.15 1426.82 1698.81C1426.82 1698.81 1426.87 1698.7 1426.98 1699.14C1429.14 1700.8 1431.19 1702.01 1433.24 1703.22C1435.51 1705.23 1437.78 1707.24 1440.68 1709.98C1449.3 1718.08 1457.3 1725.46 1465.29 1732.83C1465.73 1732.42 1466.18 1732.01 1466.62 1731.61C1460.78 1724.8 1454.95 1718 1448.69 1710.91C1447.14 1709 1446.02 1707.36 1444.89 1705.73C1444.89 1705.73 1444.87 1705.89 1444.81 1705.49C1444.3 1704.76 1443.85 1704.43 1443.4 1704.1C1443.4 1704.1 1443.4 1704.24 1443.32 1703.84C1442.83 1703.11 1442.4 1702.78 1441.98 1702.45C1441.98 1702.45 1441.58 1703.01 1441.66 1702.38C1441.45 1701.29 1441.03 1700.98 1440.5 1700.84C1440.5 1700.84 1439.88 1701.3 1440.06 1700.72C1440 1699.72 1439.64 1699.43 1439.18 1699.28C1439.18 1699.28 1439.18 1698.97 1438.92 1698.67C1438.43 1698.02 1438.11 1697.8 1437.69 1697.71C1437.69 1697.71 1437.64 1697.34 1437.36 1697.05C1436.84 1696.41 1436.52 1696.2 1436.12 1696.13C1436.12 1696.13 1436.12 1695.86 1435.8 1695.46C1434.8 1694.56 1434.13 1694.06 1433.47 1693.55C1433.47 1693.55 1433.44 1693.68 1433.39 1693.26C1432.84 1692.53 1432.34 1692.22 1431.84 1691.91C1431.84 1691.91 1431.84 1692.12 1431.8 1691.69C1431.27 1690.94 1430.77 1690.63 1430.27 1690.31C1430.27 1690.31 1430.26 1690.54 1430.23 1690.1C1429.7 1689.33 1429.21 1688.99 1428.72 1688.66C1428.68 1688.17 1428.44 1687.8 1427.51 1687.05C1426.51 1686.26 1425.99 1685.98 1425.48 1685.69C1425.48 1685.69 1425.51 1685.82 1425.38 1685.4C1424.53 1684.48 1423.82 1683.96 1423.1 1683.45C1422.86 1683.72 1422.62 1683.99 1422.48 1683.44C1420.42 1681 1418.28 1679.37 1416.13 1677.75C1416.13 1677.75 1416.12 1677.86 1415.94 1677.38C1412.9 1674.9 1410.04 1672.9 1407.19 1670.89C1406.98 1671.14 1406.77 1671.39 1406.57 1670.85C1383.61 1653.15 1357.46 1645.61 1329.01 1643.38C1340.22 1639.37 1351.38 1635.69 1362.84 1633.98C1387.83 1630.25 1411.19 1636.42 1433.31 1648C1433.31 1648 1433.33 1648.02 1433.69 1648.42C1442.89 1655.15 1451.73 1661.49 1460.56 1667.82C1460.56 1667.82 1460.64 1668.18 1460.94 1668.45C1461.49 1669.06 1461.82 1669.26 1462.23 1669.31C1462.23 1669.31 1462.27 1669.59 1462.55 1669.89C1463.12 1670.56 1463.48 1670.8 1463.92 1670.91C1463.92 1670.91 1463.95 1671.05 1464.19 1671.36C1464.71 1672.06 1465.07 1672.32 1465.52 1672.48C1465.52 1672.48 1465.54 1672.63 1465.79 1672.95C1466.35 1673.65 1466.75 1673.9 1467.23 1674.03C1467.23 1674.03 1467.41 1673.91 1467.49 1674.33C1467.83 1675.16 1468.19 1675.45 1468.66 1675.62C1468.66 1675.62 1468.67 1675.8 1468.91 1676.11C1469.43 1676.8 1469.79 1677.06 1470.23 1677.2C1470.23 1677.2 1470.25 1677.38 1470.48 1677.69C1470.98 1678.37 1471.34 1678.63 1471.77 1678.77C1471.77 1678.77 1471.78 1679 1472.01 1679.32C1472.48 1680 1472.82 1680.24 1473.25 1680.35C1473.25 1680.35 1473.26 1680.63 1473.63 1681.1C1476.72 1684.64 1479.43 1687.72 1482.14 1690.8C1482.14 1690.8 1482.18 1690.69 1482.26 1691.19C1483.87 1693.48 1485.4 1695.27 1486.92 1697.06C1486.92 1697.06 1486.97 1696.96 1487.06 1697.5C1495.36 1711.39 1503.6 1724.72 1511.75 1738.1C1520.16 1751.9 1528.49 1765.75 1536.85 1779.58C1536.85 1779.58 1537.01 1779.41 1536.98 1779.83C1537.17 1780.76 1537.52 1781.13 1538.01 1781.37C1538.01 1781.37 1538 1781.53 1538.29 1782.08C1541.99 1788.42 1537.41 1787.06 1534.52 1787.12C1511.17 1787.53 1487.79 1787.38 1464.47 1788.46C1424.86 1790.3 1386.16 1788.51 1351.38 1766.2C1351.38 1766.2 1351.38 1766.31 1351.16 1765.85C1348.68 1763.89 1346.42 1762.39 1344.15 1760.89C1343.99 1761.11 1343.83 1761.33 1343.66 1760.87C1343.15 1759.96 1342.64 1759.73 1342.13 1759.5C1342.13 1759.5 1342.15 1759.67 1342.03 1759.22C1340.87 1758.03 1339.84 1757.29 1338.81 1756.55Z" fill="#FFFFFF"/>
<path d="M1721.51 1357.36C1691.77 1384.44 1667.47 1414.53 1656.83 1454.93C1647.25 1491.24 1626.31 1520.66 1591.6 1537.91C1563.58 1551.84 1534.42 1553.11 1505.25 1541.83C1469.91 1528.17 1458.24 1492.82 1478.19 1460.54C1492.22 1437.84 1513.34 1422.71 1536.75 1411.67C1569.71 1396.14 1603.77 1382.95 1637.1 1368.17C1651.94 1361.59 1666.23 1353.74 1680.58 1346.1C1684.33 1344.11 1687.37 1340.78 1690.74 1338.07C1690.41 1337.44 1690.09 1336.8 1689.77 1336.17C1680.54 1338.92 1671.32 1341.68 1661.34 1344.13C1660.06 1343.75 1659.55 1343.67 1659.05 1343.6C1658.3 1343.58 1657.55 1343.55 1655.54 1343.61C1649.07 1343.8 1643.86 1343.99 1638.65 1344.01C1614.96 1344.07 1592.95 1336.85 1571.26 1328.32C1571.14 1328.57 1571.01 1328.82 1570.68 1328.33C1567.49 1326.29 1564.51 1324.97 1561.54 1323.65C1561.54 1323.65 1561.56 1323.84 1561.29 1323.42C1556.9 1320.77 1552.78 1318.54 1548.66 1316.31C1548.66 1316.31 1548.63 1316.45 1548.41 1315.99C1546.78 1314.73 1545.38 1313.92 1543.97 1313.11C1543.97 1313.11 1543.91 1313.27 1543.7 1312.78C1541.26 1310.76 1539.03 1309.23 1536.8 1307.7C1536.8 1307.7 1536.75 1307.66 1536.44 1307.22C1532.97 1304.12 1529.81 1301.47 1526.65 1298.81C1526.65 1298.81 1526.65 1298.93 1526.57 1298.54C1525.83 1297.63 1525.17 1297.13 1524.51 1296.62C1524.51 1296.62 1524.49 1296.37 1524.17 1295.99C1523.2 1295.1 1522.55 1294.6 1521.91 1294.09C1521.91 1294.09 1521.9 1294.22 1521.8 1293.75C1520.32 1291.87 1518.94 1290.47 1517.56 1289.07C1517.56 1289.07 1517.53 1289.23 1517.47 1288.81C1516.99 1288.01 1516.56 1287.62 1516.13 1287.23C1516.13 1287.23 1516.16 1287.37 1516.03 1286.86C1513.97 1283.52 1512.04 1280.7 1510.1 1277.88C1510.1 1277.88 1509.53 1278.11 1509.69 1277.54C1509.36 1276.28 1508.86 1275.59 1508.37 1274.9C1508.37 1274.9 1508.31 1274.86 1508.25 1274.38C1507.71 1273.15 1507.24 1272.4 1506.77 1271.64C1506.77 1271.64 1506.63 1271.81 1506.59 1271.16C1500.86 1255.88 1499.75 1241.43 1508.36 1227.39C1508.36 1227.39 1508.16 1227.25 1508.62 1227.02C1509.31 1226.28 1509.54 1225.77 1509.77 1225.25C1509.77 1225.25 1509.45 1225.3 1509.92 1225.24C1511.2 1224.15 1512 1223.13 1512.81 1222.11C1512.81 1222.11 1512.62 1222.11 1513.09 1222.04C1514.76 1220.93 1515.97 1219.88 1517.17 1218.83C1517.17 1218.83 1517.01 1218.63 1517.65 1218.62C1543.21 1206.36 1568.24 1212.28 1588.43 1235.2C1588.43 1235.2 1588.4 1235.41 1588.72 1235.96C1595.76 1247.39 1598.06 1258.42 1590.21 1269.81C1590.52 1270.08 1590.84 1270.35 1590.29 1270.44C1588.66 1271.15 1587.88 1272.03 1587.11 1272.91C1587.11 1272.91 1587.28 1273.24 1586.67 1273.29C1584.78 1273.9 1583.51 1274.45 1581.08 1275.5C1586.78 1263.23 1585.26 1253.25 1576.03 1244.83C1576.03 1244.83 1575.88 1244.99 1575.82 1244.55C1575.27 1243.78 1574.79 1243.46 1574.31 1243.14C1574.31 1243.14 1574.3 1243.28 1574.09 1242.8C1570.14 1239.94 1566.65 1236.96 1562.61 1235.28C1552.36 1231.01 1541.99 1229.17 1532.47 1237.37C1532.47 1237.37 1532.59 1237.43 1532.11 1237.54C1530.68 1238.99 1529.73 1240.33 1528.78 1241.66C1529 1241.84 1529.22 1242.02 1528.73 1242.33C1524.05 1251.34 1526 1259.33 1531.67 1266.76C1531.67 1266.76 1531.66 1266.92 1531.92 1267.4C1533.66 1269.62 1535.13 1271.34 1536.61 1273.07C1536.61 1273.07 1537.2 1272.94 1537.05 1273.34C1537.2 1274.19 1537.59 1274.54 1538.08 1274.77C1538.08 1274.77 1538.08 1274.88 1538.29 1275.22C1538.79 1275.95 1539.17 1276.22 1539.64 1276.36C1539.64 1276.36 1539.65 1276.48 1539.87 1276.81C1540.38 1277.54 1540.77 1277.8 1541.25 1277.94C1541.25 1277.94 1541.27 1278.03 1541.48 1278.36C1542 1279.1 1542.39 1279.37 1542.88 1279.51C1542.88 1279.51 1543.2 1279.12 1543.29 1279.67C1543.86 1280.5 1544.32 1280.76 1544.79 1281.03C1544.79 1281.03 1544.79 1280.83 1544.9 1281.23C1545.53 1281.91 1546.04 1282.19 1546.55 1282.47C1546.55 1282.47 1546.53 1282.31 1546.69 1282.72C1548.09 1284.04 1549.33 1284.95 1550.56 1285.86C1550.56 1285.86 1550.62 1286.14 1551.08 1286.5C1553.43 1288.09 1555.33 1289.32 1557.22 1290.55C1557.34 1290.31 1557.45 1290.06 1557.75 1290.59C1578.03 1303.72 1599.4 1312.9 1622.61 1317.5C1623.32 1317.73 1624.04 1317.96 1625.82 1318.46C1647.42 1320.6 1667.93 1323.42 1688.49 1323.86C1697.04 1324.05 1705.71 1319.15 1714.32 1316.57C1714.32 1316.57 1714.23 1316.52 1714.65 1316.46C1715.61 1315.75 1716.15 1315.1 1716.69 1314.45C1716.69 1314.45 1716.9 1314.43 1717.34 1314.06C1718.99 1311.7 1720.2 1309.71 1721.41 1307.72C1721.41 1307.72 1721.08 1307.6 1721.64 1307.14C1724.44 1300.14 1725.58 1293.66 1721.25 1287.44C1721.25 1287.44 1721.23 1287.6 1721.18 1287.12C1720.46 1285.96 1719.81 1285.28 1719.15 1284.59C1719.15 1284.59 1719.14 1284.72 1719.04 1284.23C1717.02 1282.29 1715.1 1280.86 1713.17 1279.42C1713.17 1279.42 1713.16 1279.55 1712.86 1279.12C1706.91 1277.01 1701.32 1274.2 1695.59 1273.89C1681.41 1273.11 1668.59 1278.11 1656.68 1285.57C1656.68 1285.57 1656.76 1285.95 1656.14 1285.93C1631.87 1297.64 1611.16 1300.61 1600.66 1294.13C1606.03 1290.45 1611.58 1286.65 1617.13 1282.85C1617.13 1282.85 1617.42 1282.87 1617.73 1282.64C1618.42 1282.2 1618.66 1281.88 1618.76 1281.47C1618.76 1281.47 1619.19 1281.38 1619.47 1281.11C1620.07 1280.67 1620.24 1280.41 1620.26 1280.05C1620.26 1280.05 1620.82 1279.85 1621.14 1279.54C1621.73 1279.07 1621.85 1278.83 1621.82 1278.51C1621.82 1278.51 1622.36 1278.31 1622.69 1277.95C1623.33 1277.38 1623.49 1277.09 1623.5 1276.72C1623.5 1276.72 1623.87 1276.66 1624.28 1276.2C1625.92 1273.87 1627.13 1272 1628.35 1270.12C1628.35 1270.12 1628.51 1270.05 1628.83 1269.55C1639.12 1250.65 1636.52 1233.17 1625.23 1216.34C1625.23 1216.34 1625.23 1216.22 1624.97 1215.75C1623.21 1213.55 1621.71 1211.81 1620.21 1210.08C1620.21 1210.08 1620.17 1210.23 1620.07 1209.82C1619.52 1209.04 1619.06 1208.67 1618.6 1208.3C1618.6 1208.3 1618.59 1208.54 1618.51 1208.13C1617.97 1207.38 1617.51 1207.04 1617.05 1206.7C1617.05 1206.7 1617.05 1206.91 1616.98 1206.51C1616.45 1205.78 1616 1205.45 1615.55 1205.12C1615.55 1205.12 1615.54 1205.25 1615.39 1204.86C1614.76 1204.18 1614.27 1203.88 1613.78 1203.58C1613.78 1203.58 1613.78 1203.86 1613.72 1203.44C1613.14 1202.7 1612.63 1202.38 1612.12 1202.07C1612.12 1202.07 1612.16 1202.25 1611.98 1201.8C1609.99 1199.95 1608.18 1198.54 1606.37 1197.14C1606.37 1197.14 1606.32 1196.98 1606.03 1196.68C1605.4 1196.02 1604.97 1195.81 1604.47 1195.75C1604.47 1195.75 1604.19 1196.09 1603.95 1195.52C1596.43 1191.43 1589.45 1186.99 1581.83 1184.55C1555.81 1176.2 1530.41 1176.44 1506.79 1192.38C1506.79 1192.38 1506.63 1192.37 1506.14 1192.67C1502.82 1195.91 1499.98 1198.85 1497.14 1201.79C1497.14 1201.79 1496.95 1201.85 1496.63 1202.17C1496.08 1202.96 1495.86 1203.43 1495.63 1203.9C1495.63 1203.9 1495.76 1203.87 1495.33 1204.16C1488.02 1214.04 1485.4 1225.12 1485.51 1236.51C1485.81 1268.03 1482.59 1298.87 1470.46 1328.83C1459.75 1355.28 1447.91 1380.83 1439.52 1407.48C1430.82 1435.1 1431.67 1463.4 1444.15 1490.44C1444.15 1490.44 1444.23 1490.33 1444.21 1490.92C1448.39 1499.04 1452.59 1506.57 1456.78 1514.11C1456.78 1514.11 1456.8 1513.98 1456.84 1514.42C1457.46 1515.56 1458.04 1516.26 1458.63 1516.95C1458.63 1516.95 1458.6 1516.97 1458.67 1517.41C1459.13 1518.76 1459.52 1519.66 1459.91 1520.57C1459.27 1520.63 1458.62 1520.69 1457.98 1520.75C1457.98 1520.75 1457.91 1520.57 1457.5 1520.25C1455.74 1519.17 1454.4 1518.4 1453.06 1517.64C1452.88 1517.93 1452.7 1518.23 1452.49 1517.72C1451.39 1516.31 1450.33 1515.71 1449.26 1515.11C1449.16 1514.55 1448.84 1514.18 1447.69 1513.49C1445.71 1512.12 1444.36 1511.23 1443.01 1510.35C1443.01 1510.35 1443.01 1510.46 1442.92 1510.07C1442.15 1509.18 1441.48 1508.68 1440.81 1508.19C1440.81 1508.19 1440.72 1507.85 1440.41 1507.58C1439.85 1506.98 1439.51 1506.77 1439.1 1506.69C1439.1 1506.69 1439.08 1506.51 1438.82 1506.19C1438.28 1505.49 1437.9 1505.24 1437.44 1505.11C1437.44 1505.11 1437.43 1504.97 1437.13 1504.54C1435.01 1502.35 1433.18 1500.58 1431.35 1498.82C1431.35 1498.82 1431.34 1498.56 1430.98 1498.1C1428.44 1495.04 1426.25 1492.45 1424.06 1489.86C1424.06 1489.86 1424.02 1490.02 1424.01 1489.54C1422.95 1487.76 1421.91 1486.47 1420.86 1485.18C1420.86 1485.18 1420.82 1485.32 1420.78 1484.77C1406.55 1459.79 1401.58 1433.61 1404.48 1405.49C1406.79 1383.21 1413.82 1362.45 1422.9 1342.35C1436.89 1311.37 1446.15 1279.42 1445.77 1245.14C1445.58 1227.53 1448.92 1210.74 1457.18 1195.07C1457.18 1195.07 1457.06 1195.05 1457.47 1194.79C1458.22 1193.66 1458.58 1192.8 1458.94 1191.93C1458.94 1191.93 1458.79 1191.96 1459.24 1191.76C1461.2 1189.39 1462.72 1187.22 1464.24 1185.04C1464.24 1185.04 1464.53 1184.99 1464.81 1184.69C1465.45 1184.11 1465.68 1183.75 1465.76 1183.3C1465.76 1183.3 1465.87 1183.28 1466.2 1183.07C1466.91 1182.56 1467.15 1182.17 1467.26 1181.7C1467.26 1181.7 1467.4 1181.67 1467.78 1181.38C1468.91 1180.22 1469.67 1179.36 1470.43 1178.49C1470.43 1178.49 1470.54 1178.48 1470.88 1178.29C1471.66 1177.82 1471.95 1177.43 1472.08 1176.93C1472.08 1176.93 1472.1 1176.87 1472.45 1176.74C1473.19 1176.36 1473.45 1176.01 1473.58 1175.56C1473.58 1175.56 1473.82 1175.57 1474.28 1175.25C1476.44 1173.5 1478.14 1172.07 1479.84 1170.63C1479.84 1170.63 1479.8 1170.49 1480.31 1170.35C1482.01 1169.19 1483.2 1168.16 1484.39 1167.13C1484.39 1167.13 1484.24 1167.03 1484.75 1167.01C1486.6 1166.07 1487.93 1165.15 1489.26 1164.23C1489.26 1164.23 1488.99 1163.86 1489.65 1163.91C1495.57 1161.62 1500.7 1158.92 1506.11 1156.99C1543.37 1143.71 1579.28 1147.8 1614.02 1165.81C1614.02 1165.81 1614.14 1165.49 1614.38 1165.96C1615.17 1166.58 1615.71 1166.73 1616.25 1166.89C1616.25 1166.89 1616.21 1166.76 1616.43 1167.19C1618.37 1168.61 1620.11 1169.61 1621.84 1170.6C1621.84 1170.6 1621.87 1170.68 1622.21 1171.04C1623.6 1171.98 1624.65 1172.56 1625.71 1173.13C1625.71 1173.13 1625.69 1173.01 1625.86 1173.43C1626.82 1174.31 1627.62 1174.77 1628.42 1175.24C1628.42 1175.24 1628.56 1174.98 1628.71 1175.49C1630.65 1177.36 1632.45 1178.72 1634.24 1180.08C1634.24 1180.08 1634.29 1180.29 1634.54 1180.59C1635.07 1181.24 1635.43 1181.47 1635.88 1181.56C1635.88 1181.56 1635.9 1181.76 1636.19 1182.09C1636.82 1182.83 1637.26 1183.08 1637.79 1183.16C1637.79 1183.16 1637.8 1183.03 1637.92 1183.42C1638.5 1184.1 1638.97 1184.39 1639.43 1184.69C1639.43 1184.69 1639.44 1184.53 1639.54 1184.93C1640.11 1185.64 1640.58 1185.95 1641.05 1186.26C1641.05 1186.26 1641.06 1186.05 1641.1 1186.44C1641.57 1187.17 1641.99 1187.51 1642.41 1187.85C1642.58 1187.65 1642.75 1187.44 1642.84 1187.94C1643.42 1189.23 1644.08 1189.83 1644.74 1190.42C1644.74 1190.93 1644.94 1191.34 1645.79 1192.24C1647.1 1193.76 1647.96 1194.68 1648.82 1195.61C1648.82 1195.61 1649.13 1195.35 1649.08 1195.83C1649.42 1196.66 1649.81 1197.01 1650.21 1197.36C1650.47 1197.29 1650.73 1197.21 1650.81 1197.74C1651.7 1199.7 1652.77 1201.06 1653.84 1202.41C1653.84 1202.41 1653.79 1202.73 1654.02 1203.23C1654.99 1204.73 1655.73 1205.73 1656.46 1206.73C1656.73 1206.6 1657 1206.46 1657.08 1207.08C1660.3 1216.62 1663.97 1225.32 1666.97 1234.24C1668.28 1238.12 1669.91 1239.71 1674.11 1239.44C1693.3 1238.18 1711.03 1243.15 1727.63 1252.6C1727.63 1252.6 1727.85 1252.37 1728.03 1252.89C1729.26 1254.02 1730.31 1254.62 1731.35 1255.23C1731.35 1255.23 1731.39 1255.09 1731.52 1255.52C1732.35 1256.42 1733.06 1256.9 1733.77 1257.37C1733.77 1257.37 1733.81 1257.53 1734.08 1257.85C1734.68 1258.58 1735.1 1258.83 1735.62 1258.93C1735.62 1258.93 1735.62 1258.79 1735.74 1259.18C1736.33 1259.86 1736.81 1260.14 1737.28 1260.43C1737.28 1260.43 1737.29 1260.27 1737.38 1260.67C1737.92 1261.39 1738.38 1261.72 1738.84 1262.04C1738.84 1262.04 1738.85 1261.85 1738.89 1262.24C1739.35 1262.95 1739.76 1263.27 1740.17 1263.6C1740.17 1263.6 1740.19 1263.67 1740.36 1264.03C1740.81 1264.83 1741.19 1265.12 1741.69 1265.26C1741.85 1264.97 1742.01 1264.68 1742.09 1265.24C1742.65 1266.7 1743.28 1267.3 1743.92 1267.91C1743.92 1267.91 1743.96 1267.79 1744.05 1268.35C1746.36 1273.6 1749.07 1278.13 1750.7 1283.02C1756.15 1299.38 1751.12 1314.36 1743.87 1328.92C1743.87 1328.92 1744 1328.94 1743.56 1329.17C1742.12 1331.1 1741.13 1332.8 1740.14 1334.5C1740.14 1334.5 1739.98 1334.55 1739.61 1334.93C1737.98 1337.17 1736.72 1339.02 1735.46 1340.88C1735.46 1340.88 1735.45 1340.95 1735.05 1341.25C1734 1342.61 1733.35 1343.66 1732.7 1344.72C1732.7 1344.72 1732.93 1344.71 1732.51 1344.79C1731.85 1345.42 1731.6 1345.95 1731.35 1346.49C1731.35 1346.49 1731.51 1346.46 1731.07 1346.54C1730.11 1347.37 1729.59 1348.1 1729.06 1348.84C1729.2 1349.08 1729.34 1349.32 1728.94 1349.39C1728.14 1349.69 1727.88 1350.15 1727.62 1350.62C1727.62 1350.62 1727.77 1350.63 1727.38 1350.76C1726.73 1351.4 1726.45 1351.9 1726.18 1352.4C1726.18 1352.4 1726.39 1352.39 1725.94 1352.49C1724.71 1353.61 1723.94 1354.63 1723.17 1355.64C1723.17 1355.64 1723.39 1355.67 1722.96 1355.74C1722.19 1356.33 1721.85 1356.84 1721.51 1357.36Z" fill="#FFFFFF"/>
<path d="M723.754 621.973C723.781 622.285 723.808 622.596 724.125 623.645C724.775 625.338 725.135 626.293 725.496 627.248C725.496 627.248 725.454 627.335 725.503 627.996C726.41 632.221 727.269 635.783 728.068 639.968C728.228 642.234 728.448 643.877 728.577 646.161C728.517 653.808 728.548 660.815 728.388 668.31C728.233 669.491 728.269 670.184 728.086 671.454C727.407 675.312 726.946 678.592 726.312 682.045C725.969 682.548 726.005 682.853 725.929 683.684C725.513 685.066 725.415 685.9 725.141 687.102C724.997 687.741 725.029 688.012 724.806 688.802C724.177 691.198 723.803 693.074 723.295 694.982C723.161 695.015 723.344 695.415 723.023 696.022C721.109 701.635 719.71 706.712 717.891 711.633C697.862 765.817 676.821 819.65 657.976 874.241C641.382 922.31 627.223 971.219 611.671 1020.32C603.85 1059.19 595.412 1097.34 589.095 1135.84C582.101 1178.47 579.9 1221.63 584.536 1264.67C586.887 1286.49 592.033 1308.04 596.725 1329.54C597.563 1333.37 601.929 1338.27 605.487 1339.08C608.086 1339.67 612.032 1334.37 615.377 1331.7C615.377 1331.7 615.508 1331.66 615.831 1331.4C616.545 1330.81 616.783 1330.38 616.866 1329.87C616.866 1329.87 616.475 1329.47 617.095 1329.38C619.047 1327.45 620.38 1325.61 621.713 1323.77C621.713 1323.77 621.842 1323.74 622.239 1323.35C626.524 1317.39 630.411 1311.81 634.298 1306.23C634.034 1306.1 633.769 1305.97 634.264 1305.72C635.605 1304.52 636.186 1303.44 636.767 1302.37C636.767 1302.37 636.659 1302.37 637.116 1302.13C640.686 1297.02 643.798 1292.16 646.91 1287.29C646.91 1287.29 646.669 1287.12 647.165 1286.86C648.457 1285.24 649.254 1283.89 650.05 1282.54C650.05 1282.54 649.585 1282.23 650.213 1282.01C656.9 1272.05 662.959 1262.31 669.018 1252.57C669.018 1252.57 668.666 1252.38 669.22 1252.07C673.721 1245.2 677.667 1238.63 681.613 1232.07C681.613 1232.07 681.567 1231.98 681.981 1231.61C685.302 1226.24 688.209 1221.25 691.116 1216.26C691.116 1216.26 690.671 1216.08 691.255 1215.76C701.368 1198.64 710.897 1181.85 720.426 1165.07C720.426 1165.07 720.316 1165.09 720.765 1164.82C723.261 1160.71 725.309 1156.86 727.356 1153.02C727.126 1152.82 726.895 1152.61 727.38 1152.36C732.581 1144.14 737.068 1135.97 741.555 1127.81C741.29 1127.64 741.025 1127.46 741.534 1127.17C747.869 1116.83 753.43 1106.62 758.991 1096.41C758.991 1096.41 759.092 1096.36 759.437 1095.92C763.144 1089.46 766.506 1083.43 769.868 1077.4C769.868 1077.4 770.014 1077.37 770.42 1076.92C774.069 1072.09 778.721 1068.52 783.379 1072.12C786.617 1074.61 788.143 1080.12 789.064 1084.56C789.703 1087.65 788.255 1091.28 787.321 1094.55C780.403 1118.77 773.565 1143.02 766.339 1167.15C759.127 1191.23 751.493 1215.18 743.796 1239.6C743.08 1241.83 742.614 1243.65 741.828 1245.94C741.365 1247.15 741.222 1247.88 740.796 1249.14C729.398 1288.12 717.772 1326.44 707.36 1365.09C701.176 1388.04 696.906 1411.51 691.776 1434.75C691.423 1437.92 691.071 1441.09 690.248 1444.98C689.555 1446.12 689.615 1446.45 689.956 1446.7C689.641 1447.58 689.326 1448.45 688.834 1450.65C683.266 1490.36 681.246 1528.83 685.466 1568.19C687.181 1583.95 688.991 1599 690.798 1614.05C693.826 1639.27 697.279 1664.52 684.722 1688.46C684.722 1688.46 684.912 1688.55 684.447 1688.77C682.163 1691.43 680.344 1693.87 678.525 1696.32C678.525 1696.32 678.809 1696.56 678.273 1696.6C676.913 1697.55 676.09 1698.46 675.266 1699.37C675.266 1699.37 675.819 1699.73 675.142 1699.69C673.862 1700.29 673.259 1700.92 672.226 1701.67C670.866 1702.51 669.935 1703.23 669.004 1703.95C669.198 1704.22 669.392 1704.48 668.774 1704.56C657.472 1710.28 646.202 1712.77 634.169 1712.95C611.765 1713.29 592.384 1704.97 574.156 1692.97C574.156 1692.97 574.117 1693.11 573.893 1692.69C571.801 1690.89 569.933 1689.52 568.066 1688.15C568.066 1688.15 568.036 1688.04 567.671 1687.63C561.611 1681.83 555.915 1676.43 550.219 1671.02C550.219 1671.02 550.194 1671.29 550.182 1670.87C549.738 1670.05 549.307 1669.64 548.875 1669.24C548.875 1669.24 548.881 1669.44 548.802 1669.04C548.282 1668.27 547.841 1667.92 547.4 1667.56C547.4 1667.56 547.422 1667.73 547.295 1667.25C545.704 1665 544.239 1663.23 542.775 1661.46C542.496 1661.7 542.218 1661.94 542.135 1661.33C525.108 1637.93 512.928 1612.63 502.478 1586.46C473.171 1513.06 459.192 1436.2 452.438 1357.91C445.961 1282.83 449.015 1207.89 458.414 1132.78C458.591 1131.32 458.592 1130.23 458.844 1128.49C459.253 1126 459.41 1124.16 459.776 1121.81C461.084 1111.68 462.182 1102.06 463.281 1092.43C463.711 1091.67 464.141 1090.9 464.707 1089.09C478.504 1024.16 491.59 960.155 505.979 896.444C521.42 828.071 539.517 760.272 553.781 691.666C566.03 632.752 563.96 574.493 531.907 520.547C529.909 517.184 531.508 511.683 531.433 507.177C531.433 507.177 531.195 507.028 531.784 506.858C538.734 504.762 545.297 500.73 551.412 501.322C566.675 502.8 582.082 505.168 596.799 509.385C621.718 516.526 643.499 530.308 664.413 545.375C664.413 545.375 664.417 545.216 664.593 545.656C666.614 547.475 668.459 548.854 670.304 550.233C670.304 550.233 670.345 550.428 670.747 550.828C675.078 554.578 679.008 557.928 682.937 561.278C682.937 561.278 682.96 561.434 683.193 561.754C683.724 562.461 684.112 562.699 684.591 562.79C684.591 562.79 684.613 562.908 684.819 563.235C685.31 563.966 685.692 564.231 686.17 564.357C686.17 564.357 686.187 564.486 686.399 564.809C686.901 565.525 687.284 565.769 687.762 565.867C687.762 565.867 687.777 566.047 687.979 566.369C688.426 567.09 688.774 567.36 689.222 567.499C689.222 567.499 689.232 567.742 689.461 568.048C689.926 568.726 690.256 568.972 690.679 569.091C690.679 569.091 690.676 569.355 691.042 569.818C693.488 572.474 695.568 574.667 697.649 576.86C697.649 576.86 697.668 576.654 697.702 577.057C698.162 577.818 698.589 578.175 699.015 578.532C699.015 578.532 699.236 578.198 699.223 578.707C699.482 579.696 699.881 580.021 700.405 580.191C700.405 580.191 700.94 580.232 700.863 580.673C701.834 582.285 702.882 583.455 703.931 584.625C703.931 584.625 703.962 584.489 703.983 584.881C704.37 585.667 704.735 586.061 705.1 586.455C705.1 586.455 705.197 586.47 705.386 586.983C707.515 590.263 709.454 593.03 711.394 595.797C711.394 595.797 711.375 595.943 711.624 596.486C714.855 602.717 717.836 608.407 720.933 614.603C721.949 617.398 722.852 619.686 723.754 621.973Z" fill="#FFFFFF"/>
</svg>
