<svg width="2201" height="2201" viewBox="0 0 2201 2201" fill="none" xmlns="http://www.w3.org/2000/svg">
<rect width="2201" height="2201" rx="1100.5" fill="#B11A3B"/>
<path d="M1137.89 821.587C1141.78 821.595 1145.67 821.604 1150.76 821.482C1165.31 819.138 1178.66 816.923 1192.16 814.683C1192.16 812.403 1192.17 811.007 1192.16 809.612C1191.58 761.061 1191.44 712.5 1190.26 663.965C1189.49 632.336 1188.65 600.523 1180.15 569.756C1177.72 560.972 1172.32 553.009 1168.29 544.67C1168.29 544.67 1168.24 544.782 1168.17 544.408C1167.69 543.718 1167.29 543.401 1166.88 543.084C1166.88 543.084 1166.88 543.226 1166.82 542.877C1166.37 542.237 1165.99 541.947 1165.6 541.657C1165.4 541.92 1165.19 542.182 1165.15 541.738C1165.04 540.634 1164.66 540.37 1164.19 540.24C1163.99 540.455 1163.79 540.671 1163.74 540.257C1163.5 539.376 1163.11 539.125 1162.72 538.873C1162.72 538.873 1162.38 539.34 1162.29 538.762C1160.39 537.039 1158.57 535.894 1156.76 534.749C1156.76 534.749 1156.73 535.011 1156.64 534.653C1156.03 534.135 1155.51 533.974 1154.98 533.814C1154.98 533.814 1155.03 533.934 1154.8 533.521C1151.84 531.764 1149.22 530.028 1146.35 529.151C1137.6 526.483 1128.67 524.413 1119.98 521.608C1110.98 518.704 1109.45 514.674 1113.36 506.221C1113.36 506.221 1113.1 506.189 1113.47 506.164C1114.15 505.707 1114.46 505.273 1114.77 504.84C1114.77 504.84 1114.65 504.85 1115.12 504.715C1120.55 501.782 1125.53 498.985 1131.02 496.17C1155.49 487.186 1180.25 484.481 1205.63 486.775C1232.4 489.195 1257.31 497.974 1281.47 509.237C1281.47 509.237 1281.47 509.097 1281.7 509.467C1283.62 510.615 1285.32 511.392 1287.01 512.17C1287.01 512.17 1287.04 512.035 1287.23 512.373C1288.16 513.002 1288.89 513.293 1289.62 513.583C1289.62 513.583 1289.66 513.636 1290.02 513.96C1293.4 515.913 1296.43 517.541 1299.45 519.17C1299.45 519.17 1299.49 519.274 1299.85 519.596C1302.35 521.115 1304.5 522.312 1306.65 523.51C1306.65 523.51 1306.73 523.252 1306.92 523.687C1308.3 524.855 1309.5 525.587 1310.69 526.318C1310.88 526.052 1311.07 525.786 1311.26 526.242C1312.24 527.499 1313.22 528.034 1314.2 528.57C1314.2 528.57 1314.17 528.443 1314.35 528.845C1316.5 530.624 1318.48 532 1320.45 533.376C1320.45 533.376 1320.48 533.457 1320.74 533.741C1321.41 534.231 1321.83 534.437 1322.25 534.643C1322.25 534.643 1322.25 534.483 1322.39 534.881C1323.95 536.355 1325.36 537.431 1326.78 538.507C1326.78 538.507 1326.8 538.324 1326.86 538.704C1327.38 539.349 1327.85 539.613 1328.32 539.878C1328.32 539.878 1328.32 539.651 1328.35 540.037C1328.82 540.721 1329.27 541.019 1329.71 541.316C1329.72 541.767 1329.92 542.111 1330.76 542.8C1331.67 543.526 1332.12 543.799 1332.58 544.072C1332.58 544.072 1332.57 543.869 1332.58 544.272C1333.06 544.942 1333.52 545.209 1333.98 545.476C1333.98 545.476 1333.94 545.327 1334 545.763C1335.19 547.501 1336.32 548.802 1337.44 550.103C1337.44 550.103 1337.55 550.086 1337.71 550.605C1344.16 560.614 1344.64 570.913 1341.84 581.539C1338.9 592.645 1335.48 603.624 1332.69 614.763C1321.57 659.147 1318.05 704.523 1315.43 749.999C1314.69 762.833 1314.19 775.682 1313.51 789.946C1328.01 785.567 1341.78 782.492 1354.69 777.28C1380.75 766.76 1406.58 755.601 1432.05 743.728C1457.27 731.971 1482.12 730.723 1507.32 742.897C1511.95 745.134 1516.31 747.926 1520.8 750.463C1520.8 750.463 1521.15 749.877 1521.25 750.499C1522.5 751.865 1523.65 752.61 1524.79 753.355C1524.79 753.355 1524.83 753.463 1525.07 753.753C1525.62 754.406 1526.01 754.628 1526.48 754.709C1526.48 754.709 1526.48 754.586 1526.67 754.952C1527.79 755.953 1528.72 756.589 1529.65 757.225C1529.65 757.225 1529.64 757.091 1529.78 757.517C1532.58 760.519 1535.24 763.094 1537.9 765.67C1537.9 765.67 1538.2 765.287 1538.22 765.91C1539.92 768.779 1541.68 770.976 1543.29 773.28C1558.2 794.692 1558.37 816.046 1543.81 835.602C1543.81 835.602 1543.97 835.628 1543.6 835.686C1542.95 836.189 1542.67 836.634 1542.39 837.079C1542.39 837.079 1542.53 837.06 1542.11 837.159C1539.89 838.784 1538.1 840.31 1536.32 841.837C1536.32 841.837 1536.18 841.822 1535.72 842.105C1523.28 847.668 1511.73 854.577 1499.22 857.924C1460.92 868.176 1422.33 877.393 1383.7 886.357C1359.97 891.864 1335.96 896.173 1311.31 901.174C1311.31 904.223 1311.29 906.989 1311.32 909.754C1312.15 1014.05 1312.81 1118.35 1313.91 1222.64C1314.47 1276.2 1315.68 1329.75 1317.03 1383.29C1317.16 1388.51 1320.36 1393.65 1322.14 1398.83C1322.14 1398.83 1322.31 1398.61 1322.34 1399.13C1323.69 1401.32 1325 1403 1326.32 1404.68C1326.32 1404.68 1326.32 1404.53 1326.43 1404.96C1327.94 1406.99 1329.36 1408.59 1330.77 1410.18C1330.77 1410.18 1330.79 1409.92 1330.79 1410.32C1331.38 1411.31 1331.96 1411.91 1332.54 1412.5C1332.54 1412.5 1332.57 1412.41 1332.59 1412.84C1333.38 1414.08 1334.15 1414.89 1334.93 1415.71C1334.93 1415.71 1334.96 1415.56 1334.99 1415.92C1335.37 1416.65 1335.73 1417.01 1336.08 1417.37C1336.08 1417.37 1336.14 1417.21 1336.24 1417.63C1336.93 1418.59 1337.51 1419.13 1338.09 1419.68C1338.09 1419.68 1338.11 1419.56 1338.19 1420.01C1340.59 1422.98 1342.9 1425.51 1345.22 1428.03C1345.22 1428.03 1345.23 1427.94 1345.33 1428.39C1347.64 1431.02 1349.86 1433.2 1352.07 1435.38C1352.07 1435.38 1352.08 1435.2 1352.14 1435.6C1353.05 1436.76 1353.9 1437.51 1354.74 1438.26C1354.74 1438.26 1354.75 1438.14 1354.82 1438.51C1355.29 1439.18 1355.69 1439.48 1356.09 1439.79C1356.09 1439.79 1356.09 1439.62 1356.15 1439.99C1356.61 1440.66 1357.01 1440.97 1357.41 1441.27C1357.41 1441.27 1357.42 1441.12 1357.5 1441.47C1357.96 1442.11 1358.36 1442.4 1358.75 1442.69C1358.75 1442.69 1358.83 1442.52 1358.88 1442.89C1359.17 1443.68 1359.51 1443.98 1359.95 1444.16C1359.95 1444.16 1359.99 1444.2 1360.16 1444.51C1360.6 1445.18 1360.94 1445.43 1361.36 1445.57C1361.36 1445.57 1361.38 1445.64 1361.57 1445.95C1362.05 1446.61 1362.42 1446.85 1362.87 1446.97C1362.87 1446.97 1363.07 1446.84 1363.21 1447.31C1365.06 1449.35 1366.77 1450.91 1368.47 1452.48C1368.47 1452.48 1368.5 1452.54 1368.68 1452.87C1369.17 1453.58 1369.55 1453.83 1370.02 1453.95C1370.02 1453.95 1370.4 1453.52 1370.36 1454.04C1370.73 1454.81 1371.14 1455.06 1371.56 1455.31C1371.56 1455.31 1371.72 1455.04 1371.83 1455.55C1374.28 1458.04 1376.62 1460 1378.97 1461.97C1378.97 1461.97 1378.96 1461.87 1379.06 1462.23C1379.78 1463.05 1380.41 1463.51 1381.03 1463.97C1381.03 1463.97 1381.06 1464.09 1381.31 1464.38C1381.87 1465.03 1382.26 1465.25 1382.73 1465.33C1382.73 1465.33 1382.73 1465.18 1382.91 1465.57C1385.21 1467.63 1387.34 1469.3 1389.46 1470.98C1389.46 1470.98 1389.47 1471.11 1389.81 1471.47C1392.36 1473.41 1394.57 1474.99 1396.78 1476.57C1397 1476.33 1397.21 1476.1 1397.37 1476.58C1399.05 1478.43 1400.79 1479.55 1402.53 1480.68C1402.69 1480.47 1402.86 1480.26 1403.02 1480.72C1404.2 1482.14 1405.39 1482.89 1406.59 1483.64C1406.59 1483.64 1406.71 1483.52 1407 1483.94C1425.08 1496.74 1444.27 1506.26 1465.6 1512.56C1479.2 1515.08 1492.2 1518.31 1505.39 1519.69C1551.43 1524.5 1595.3 1515.67 1637.43 1497.09C1640.24 1495.86 1643.23 1495.03 1646.13 1494.02C1646.65 1494.62 1647.16 1495.22 1647.68 1495.82C1645.76 1498.68 1643.83 1501.55 1641.91 1504.41C1641.91 1504.41 1641.6 1504.42 1641.35 1504.67C1640.8 1505.11 1640.62 1505.39 1640.56 1505.74C1640.56 1505.74 1640.28 1505.75 1639.87 1506.11C1636.76 1508.95 1634.06 1511.43 1631.15 1513.93C1630.93 1513.96 1630.73 1514.35 1630.73 1514.35C1630.73 1514.35 1630.57 1514.34 1630.15 1514.59C1628.21 1516.13 1626.68 1517.41 1625.15 1518.69C1625.15 1518.69 1625.05 1518.69 1624.6 1518.93C1604.06 1533.92 1581.62 1543.59 1557.36 1549.96C1556.2 1550.17 1555.37 1550.46 1553.88 1550.74C1552.41 1551.06 1551.61 1551.37 1550.48 1551.6C1549.54 1551.71 1548.92 1551.9 1547.7 1552.04C1545.95 1552.31 1544.81 1552.64 1543.23 1552.89C1541.36 1553.09 1539.92 1553.37 1538.06 1553.57C1536.27 1553.88 1534.91 1554.28 1533.16 1554.48C1531.38 1554.49 1529.98 1554.7 1528.07 1554.83C1526.91 1554.91 1526.25 1555.06 1524.95 1555.11C1508.42 1555.14 1492.53 1555.26 1476.06 1555.2C1473.88 1554.98 1472.27 1554.96 1470.13 1554.78C1455.82 1553.41 1442.06 1552.16 1428.29 1551.02C1384.8 1547.41 1342.75 1553.05 1302.64 1570.82C1300.91 1571.58 1299.59 1573.25 1298.08 1574.5C1294.86 1575.39 1291.64 1576.28 1287.41 1577.45C1273.12 1583.7 1259.88 1589.74 1246.56 1595.59C1199.1 1616.45 1149.99 1631.29 1097.84 1632.73C1076.44 1633.31 1054.96 1630.73 1033.04 1629.38C995.213 1622.6 960.919 1608.71 930.083 1586.5C930.083 1586.5 929.738 1586.89 929.643 1586.33C928.141 1584.78 926.734 1583.8 925.327 1582.82C925.327 1582.82 925.3 1582.93 925.163 1582.53C924.346 1581.71 923.665 1581.29 922.985 1580.86C922.795 1581.1 922.605 1581.33 922.462 1580.84C920.152 1578.19 917.795 1576.27 915.438 1574.35C915.438 1574.35 915.421 1574.48 915.356 1574.11C914.847 1573.47 914.402 1573.2 913.957 1572.93C913.957 1572.93 913.978 1573.07 913.92 1572.68C913.238 1571.82 912.614 1571.34 911.989 1570.87C911.989 1570.87 911.972 1570.78 911.8 1570.49C911.381 1569.85 911.051 1569.63 910.638 1569.52C910.638 1569.52 910.617 1569.38 910.411 1569.09C909.957 1568.46 909.629 1568.23 909.22 1568.11C909.22 1568.11 909.204 1567.97 909.001 1567.69C908.553 1567.06 908.228 1566.82 907.822 1566.7C907.822 1566.7 907.806 1566.55 907.598 1566.27C907.15 1565.65 906.83 1565.42 906.431 1565.3C906.431 1565.3 906.424 1565.11 906.214 1564.83C905.769 1564.2 905.451 1563.98 905.05 1563.89C905.05 1563.89 905.039 1563.74 904.755 1563.33C902.677 1560.95 900.882 1558.97 899.088 1556.99C899.088 1556.99 898.994 1557.13 898.886 1556.65C896.089 1552.68 893.4 1549.19 890.711 1545.7C890.482 1545.88 890.254 1546.06 890.211 1545.51C879.778 1528.6 871.832 1511.28 867.588 1492.29C863.355 1473.36 863.017 1454.27 864.559 1435.05C864.599 1432.91 864.639 1430.76 864.762 1427.81C864.933 1426.42 865.021 1425.85 865.109 1425.28C865.696 1424.7 866.283 1424.11 867.174 1422.4C872.229 1398.38 883.069 1378.32 896.234 1359.34C896.033 1359.17 895.832 1359.01 896.314 1358.87C898.651 1356.78 900.306 1354.67 901.96 1352.56C901.96 1352.56 902.037 1352.54 902.429 1352.27C904.349 1350.18 905.879 1348.37 907.408 1346.55C907.408 1346.55 906.959 1346.17 907.594 1346.17C911.775 1342.65 915.32 1339.13 918.864 1335.61C918.864 1335.61 918.86 1335.53 919.323 1335.32C939.777 1318.77 961.812 1306.04 986.409 1298C1053.48 1276.07 1119.57 1280.54 1184.87 1305.53C1186.92 1306.31 1189.01 1306.98 1191.62 1307.89C1191.62 1178.87 1191.62 1050.81 1191.62 921.908C1181.89 923.359 1172.68 924.733 1162.95 926.04C1157.16 926.543 1151.91 927.425 1146.64 927.634C1119.97 928.687 1093.31 930.109 1066.64 930.284C1052.42 930.378 1038.19 928.209 1023.97 927.061C1023.97 927.061 1023.99 927.198 1023.79 926.737C1015.26 924.656 1006.93 923.036 998.6 921.417C998.6 921.417 998.621 921.568 998.478 921.115C983.845 914.406 969.354 908.15 954.863 901.894C954.863 901.894 954.847 901.98 954.607 901.571C951.423 899.33 948.479 897.499 945.535 895.668C945.341 895.892 945.148 896.116 945.004 895.662C943.886 894.237 942.72 893.491 941.554 892.744C941.554 892.744 941.516 892.616 941.181 892.272C938.718 890.339 936.588 888.75 934.459 887.161C934.459 887.161 934.427 887.047 934.105 886.681C928.822 881.457 923.862 876.599 918.902 871.741C918.661 871.951 918.42 872.162 918.361 871.63C916.779 868.824 915.015 866.76 913.252 864.696C913.013 864.882 912.775 865.067 912.725 864.553C911.404 861.948 909.893 860.043 908.383 858.138C908.383 858.138 908.334 858.221 908.32 857.804C907.614 856.537 906.921 855.688 906.228 854.838C906.016 854.971 905.803 855.104 905.743 854.556C899.967 841.217 893.551 828.757 888.29 815.827C885.073 807.922 882.559 799.39 886.117 790.493C886.335 790.387 886.437 789.912 886.437 789.912C886.217 789.819 885.997 789.725 886.439 789.588C887.383 789.143 887.664 788.742 887.946 788.34C887.946 788.34 887.688 788.332 888.208 788.232C893.818 788.092 898.909 788.052 903.999 788.012C903.999 788.012 903.967 787.895 904.169 788.283C905.943 789.566 907.514 790.46 909.085 791.354C909.288 791.099 909.49 790.845 909.67 791.309C910.906 792.73 912.164 793.434 913.423 794.138C913.423 794.138 913.56 793.894 913.734 794.353C915.768 795.813 917.629 796.816 919.489 797.818C919.489 797.818 919.491 797.719 919.727 798.128C922.554 799.865 925.145 801.193 927.735 802.521C927.735 802.521 927.712 802.341 927.88 802.69C928.809 803.368 929.57 803.698 930.33 804.028C930.33 804.028 930.344 803.907 930.543 804.21C931.249 804.631 931.756 804.749 932.263 804.867C932.263 804.867 932.206 804.746 932.454 805.132C934.431 806.223 936.161 806.926 937.891 807.63C937.891 807.63 937.866 807.539 938.154 807.926C959.44 818.011 981.431 824.729 1004.45 826.283C1029.19 827.952 1054.04 827.854 1079.49 828.623C1097.3 827.249 1114.47 825.857 1131.61 824.216C1133.77 824.01 1135.8 822.495 1137.89 821.587ZM954.91 1413.12C954.563 1413.38 954.29 1413.71 953.476 1414.41C953.134 1414.72 952.864 1415.09 952.061 1415.82C951.724 1416.14 951.456 1416.5 950.64 1417.27C950.371 1417.66 950.102 1418.04 949.229 1418.77C948.873 1419.08 948.606 1419.45 947.814 1420.25C947.567 1420.66 947.319 1421.06 946.203 1421.88C921.284 1451.55 926.035 1491.85 948.727 1519.65C950.111 1521.19 951.495 1522.74 953.123 1524.94C953.495 1525.21 953.868 1525.49 954.495 1526.4C954.757 1526.81 955.119 1527.08 955.863 1527.85C956.142 1528.25 956.516 1528.51 957.262 1529.27C957.541 1529.67 957.917 1529.93 958.671 1530.68C958.949 1531.07 959.322 1531.33 960.25 1532.25C962.876 1534.35 965.502 1536.46 968.656 1539.27C970.377 1540.43 972.098 1541.58 974.356 1543.43C975.622 1544.16 976.887 1544.89 978.7 1546.29C979.967 1546.97 981.235 1547.65 983.098 1549.05C1001.24 1560.49 1021.29 1566.79 1042.19 1570.59C1086.28 1578.6 1129.95 1574.58 1172.28 1561.8C1218.23 1547.93 1263.28 1531.1 1309.88 1515.58C1320.88 1512.81 1331.88 1510.05 1344.44 1506.89C1335.65 1501.4 1328.17 1496.73 1320.12 1491.42C1318.9 1490.7 1317.67 1489.98 1315.91 1488.59C1314.94 1488.04 1313.98 1487.5 1312.49 1486.16C1307.67 1482.98 1302.85 1479.81 1297.39 1475.94C1293.38 1473.37 1289.36 1470.79 1284.8 1467.52C1283.55 1466.77 1282.3 1466.02 1280.49 1464.62C1279.27 1463.89 1278.05 1463.17 1276.19 1461.76C1271.3 1458.69 1266.4 1455.63 1260.92 1451.9C1259.64 1451.19 1258.36 1450.48 1256.47 1449.07C1253.22 1447.13 1249.97 1445.2 1246.19 1442.51C1243.78 1441.14 1241.38 1439.77 1238.36 1437.78C1237.07 1437.12 1235.78 1436.47 1234.06 1435.2C1233.59 1435.06 1233.13 1434.92 1232.08 1434.02C1225.38 1430.34 1218.69 1426.65 1211.31 1422.31C1206.74 1419.91 1202.2 1417.44 1197.6 1415.12C1162.54 1397.44 1126.02 1384.1 1086.62 1380.99C1070.65 1379.73 1054.47 1380.83 1038.4 1381.32C1016 1381.99 995.025 1388.07 974.597 1399.37C972.725 1400.52 970.853 1401.68 968.174 1403.07C966.833 1404.08 965.492 1405.09 963.408 1406.37C962.844 1406.9 962.279 1407.44 960.852 1408.19C959.521 1409.34 958.189 1410.5 956.281 1411.89C955.917 1412.12 955.653 1412.43 954.91 1413.12Z" fill="#FDFCFC"/>
<path d="M1312.96 1687.01C1312.92 1686.56 1312.7 1686.22 1311.87 1685.54C1310.81 1684.63 1310.2 1684.16 1309.59 1683.7C1309.59 1683.7 1309.55 1683.44 1309.3 1683.2C1308.83 1682.66 1308.54 1682.46 1308.17 1682.37C1308.17 1682.37 1308.15 1682.15 1307.91 1681.88C1307.44 1681.3 1307.14 1681.08 1306.76 1680.96C1306.76 1680.96 1306.74 1680.73 1306.49 1680.48C1306.02 1679.9 1305.72 1679.68 1305.35 1679.55C1305.35 1679.55 1305.33 1679.33 1305.08 1679.07C1304.61 1678.5 1304.31 1678.27 1303.94 1678.14C1303.94 1678.14 1303.94 1677.9 1303.72 1677.64C1303.29 1677.06 1303.01 1676.85 1302.66 1676.74C1302.66 1676.74 1302.65 1676.46 1302.3 1676.07C1300.61 1674.21 1299.27 1672.74 1297.93 1671.26C1297.93 1671.26 1297.92 1671.37 1297.82 1670.98C1297.15 1670.01 1296.57 1669.44 1295.99 1668.87C1295.99 1668.87 1295.96 1668.96 1295.87 1668.49C1293.04 1664.06 1290.32 1660.11 1287.59 1656.15C1287.59 1656.15 1287.54 1656.24 1287.51 1655.73C1283.09 1643.95 1278.52 1632.74 1274.56 1621.32C1273.99 1619.69 1275.83 1615.76 1277.48 1615.05C1293.6 1608.12 1310.43 1604.74 1328.09 1606.21C1346.1 1607.71 1361.8 1615.19 1376.76 1624.66C1376.76 1624.66 1376.83 1624.86 1377.17 1625.11C1377.95 1625.53 1378.38 1625.69 1378.82 1625.86C1378.82 1625.86 1378.8 1625.61 1378.89 1625.98C1379.48 1626.54 1379.98 1626.72 1380.48 1626.91C1380.48 1626.91 1380.44 1626.79 1380.61 1627.2C1382.56 1628.75 1384.34 1629.89 1386.11 1631.03C1386.11 1631.03 1386.13 1630.94 1386.26 1631.33C1387.08 1632.17 1387.76 1632.62 1388.45 1633.08C1388.45 1633.08 1388.45 1632.95 1388.65 1633.31C1389.76 1634.26 1390.67 1634.85 1391.59 1635.44C1391.59 1635.44 1391.63 1635.34 1391.73 1635.74C1393.66 1637.22 1395.49 1638.3 1397.32 1639.38C1399.35 1641.17 1401.38 1642.97 1403.97 1645.42C1411.68 1652.65 1418.82 1659.24 1425.96 1665.83C1426.36 1665.46 1426.75 1665.1 1427.15 1664.73C1421.93 1658.66 1416.72 1652.58 1411.13 1646.25C1409.74 1644.54 1408.74 1643.08 1407.73 1641.62C1407.73 1641.62 1407.72 1641.76 1407.66 1641.41C1407.2 1640.75 1406.8 1640.46 1406.4 1640.17C1406.4 1640.17 1406.4 1640.29 1406.33 1639.93C1405.89 1639.28 1405.51 1638.99 1405.13 1638.69C1405.13 1638.69 1404.78 1639.19 1404.85 1638.63C1404.66 1637.65 1404.29 1637.38 1403.81 1637.25C1403.81 1637.25 1403.25 1637.66 1403.42 1637.15C1403.36 1636.25 1403.05 1636 1402.64 1635.85C1402.64 1635.85 1402.63 1635.58 1402.4 1635.32C1401.96 1634.73 1401.67 1634.53 1401.3 1634.45C1401.3 1634.45 1401.26 1634.13 1401 1633.86C1400.54 1633.29 1400.26 1633.11 1399.9 1633.04C1399.9 1633.04 1399.9 1632.81 1399.61 1632.45C1398.72 1631.64 1398.12 1631.19 1397.53 1630.74C1397.53 1630.74 1397.51 1630.86 1397.46 1630.48C1396.96 1629.83 1396.52 1629.55 1396.08 1629.28C1396.08 1629.28 1396.07 1629.46 1396.04 1629.08C1395.56 1628.41 1395.12 1628.13 1394.67 1627.85C1394.67 1627.85 1394.67 1628.05 1394.64 1627.66C1394.16 1626.97 1393.72 1626.67 1393.28 1626.37C1393.25 1625.93 1393.04 1625.6 1392.21 1624.94C1391.31 1624.23 1390.85 1623.97 1390.39 1623.72C1390.39 1623.72 1390.42 1623.83 1390.3 1623.46C1389.55 1622.63 1388.91 1622.18 1388.27 1621.72C1388.05 1621.96 1387.84 1622.2 1387.71 1621.71C1385.88 1619.53 1383.96 1618.08 1382.04 1616.63C1382.04 1616.63 1382.03 1616.73 1381.87 1616.3C1379.15 1614.08 1376.6 1612.29 1374.05 1610.5C1373.86 1610.72 1373.67 1610.95 1373.5 1610.46C1352.99 1594.65 1329.62 1587.91 1304.2 1585.93C1314.22 1582.35 1324.19 1579.06 1334.43 1577.53C1356.76 1574.19 1377.62 1579.71 1397.39 1590.05C1397.39 1590.05 1397.41 1590.07 1397.73 1590.42C1405.95 1596.44 1413.84 1602.1 1421.73 1607.76C1421.73 1607.76 1421.81 1608.08 1422.07 1608.32C1422.56 1608.86 1422.86 1609.04 1423.22 1609.09C1423.22 1609.09 1423.26 1609.34 1423.51 1609.6C1424.02 1610.2 1424.34 1610.42 1424.74 1610.52C1424.74 1610.52 1424.76 1610.64 1424.97 1610.92C1425.44 1611.54 1425.76 1611.78 1426.16 1611.92C1426.16 1611.92 1426.18 1612.05 1426.4 1612.34C1426.91 1612.97 1427.26 1613.19 1427.69 1613.3C1427.69 1613.3 1427.85 1613.2 1427.92 1613.57C1428.23 1614.31 1428.55 1614.57 1428.97 1614.72C1428.97 1614.72 1428.98 1614.88 1429.19 1615.16C1429.65 1615.78 1429.97 1616.01 1430.37 1616.14C1430.37 1616.14 1430.39 1616.3 1430.6 1616.57C1431.05 1617.18 1431.36 1617.41 1431.75 1617.54C1431.75 1617.54 1431.75 1617.75 1431.96 1618.03C1432.39 1618.64 1432.69 1618.85 1433.07 1618.95C1433.07 1618.95 1433.08 1619.2 1433.41 1619.62C1436.17 1622.78 1438.59 1625.53 1441.02 1628.28C1441.02 1628.28 1441.05 1628.19 1441.12 1628.63C1442.56 1630.67 1443.92 1632.27 1445.28 1633.87C1445.28 1633.87 1445.32 1633.79 1445.41 1634.27C1452.83 1646.67 1460.18 1658.58 1467.47 1670.54C1474.98 1682.86 1482.42 1695.23 1489.89 1707.59C1489.89 1707.59 1490.04 1707.43 1490.01 1707.81C1490.18 1708.64 1490.49 1708.97 1490.93 1709.18C1490.93 1709.18 1490.92 1709.33 1491.18 1709.82C1494.48 1715.48 1490.39 1714.27 1487.81 1714.32C1466.95 1714.69 1446.06 1714.55 1425.23 1715.52C1389.84 1717.16 1355.26 1715.56 1324.19 1695.63C1324.19 1695.63 1324.19 1695.73 1324 1695.32C1321.78 1693.57 1319.76 1692.23 1317.73 1690.89C1317.59 1691.09 1317.44 1691.29 1317.3 1690.87C1316.84 1690.06 1316.39 1689.85 1315.93 1689.65C1315.93 1689.65 1315.94 1689.8 1315.84 1689.4C1314.8 1688.34 1313.88 1687.67 1312.96 1687.01Z" fill="#FDF9FA"/>
<path d="M1654.87 1330.44C1628.29 1354.63 1606.59 1381.51 1597.08 1417.59C1588.53 1450.03 1569.81 1476.31 1538.81 1491.72C1513.77 1504.16 1487.72 1505.29 1461.66 1495.22C1430.09 1483.01 1419.66 1451.44 1437.49 1422.6C1450.02 1402.33 1468.89 1388.81 1489.8 1378.95C1519.25 1365.08 1549.68 1353.3 1579.46 1340.1C1592.71 1334.22 1605.48 1327.2 1618.3 1320.39C1621.65 1318.6 1624.37 1315.63 1627.37 1313.21C1627.08 1312.64 1626.8 1312.08 1626.51 1311.51C1618.27 1313.97 1610.03 1316.43 1601.11 1318.62C1599.97 1318.28 1599.51 1318.21 1599.06 1318.15C1598.39 1318.13 1597.72 1318.11 1595.93 1318.15C1590.15 1318.32 1585.5 1318.5 1580.84 1318.51C1559.67 1318.57 1540.01 1312.12 1520.63 1304.5C1520.52 1304.72 1520.41 1304.94 1520.11 1304.51C1517.26 1302.68 1514.61 1301.51 1511.95 1300.33C1511.95 1300.33 1511.96 1300.49 1511.73 1300.12C1507.81 1297.76 1504.12 1295.77 1500.44 1293.77C1500.44 1293.77 1500.41 1293.89 1500.22 1293.49C1498.77 1292.36 1497.51 1291.64 1496.26 1290.91C1496.26 1290.91 1496.2 1291.05 1496.01 1290.62C1493.83 1288.82 1491.84 1287.45 1489.85 1286.08C1489.85 1286.08 1489.8 1286.05 1489.52 1285.65C1486.42 1282.89 1483.6 1280.51 1480.78 1278.14C1480.78 1278.14 1480.78 1278.25 1480.71 1277.89C1480.04 1277.09 1479.45 1276.64 1478.86 1276.19C1478.86 1276.19 1478.85 1275.96 1478.56 1275.62C1477.7 1274.83 1477.12 1274.38 1476.54 1273.92C1476.54 1273.92 1476.53 1274.04 1476.45 1273.62C1475.12 1271.94 1473.89 1270.69 1472.65 1269.44C1472.65 1269.44 1472.63 1269.58 1472.58 1269.21C1472.14 1268.49 1471.76 1268.15 1471.38 1267.8C1471.38 1267.8 1471.4 1267.92 1471.29 1267.46C1469.45 1264.48 1467.72 1261.96 1465.99 1259.44C1465.99 1259.44 1465.48 1259.65 1465.63 1259.14C1465.33 1258.02 1464.89 1257.4 1464.44 1256.78C1464.44 1256.78 1464.39 1256.74 1464.34 1256.32C1463.86 1255.22 1463.44 1254.55 1463.02 1253.87C1463.02 1253.87 1462.89 1254.02 1462.85 1253.44C1457.74 1239.79 1456.75 1226.88 1464.43 1214.35C1464.43 1214.35 1464.26 1214.21 1464.67 1214.01C1465.28 1213.35 1465.49 1212.9 1465.7 1212.44C1465.7 1212.44 1465.41 1212.48 1465.84 1212.42C1466.97 1211.45 1467.69 1210.54 1468.41 1209.63C1468.41 1209.63 1468.24 1209.63 1468.66 1209.57C1470.15 1208.57 1471.23 1207.63 1472.31 1206.7C1472.31 1206.7 1472.17 1206.52 1472.74 1206.51C1495.58 1195.56 1517.93 1200.84 1535.97 1221.32C1535.97 1221.32 1535.95 1221.51 1536.23 1222C1542.52 1232.21 1544.58 1242.06 1537.57 1252.24C1537.84 1252.48 1538.12 1252.72 1537.63 1252.8C1536.18 1253.43 1535.48 1254.22 1534.79 1255.01C1534.79 1255.01 1534.95 1255.3 1534.4 1255.35C1532.72 1255.89 1531.58 1256.38 1529.41 1257.32C1534.5 1246.36 1533.14 1237.44 1524.9 1229.92C1524.9 1229.92 1524.76 1230.07 1524.7 1229.67C1524.21 1228.99 1523.79 1228.7 1523.36 1228.42C1523.36 1228.42 1523.35 1228.54 1523.16 1228.11C1519.63 1225.55 1516.51 1222.89 1512.91 1221.39C1503.74 1217.58 1494.48 1215.93 1485.98 1223.26C1485.98 1223.26 1486.09 1223.31 1485.65 1223.41C1484.38 1224.71 1483.53 1225.9 1482.68 1227.09C1482.88 1227.25 1483.07 1227.41 1482.64 1227.69C1478.45 1235.74 1480.2 1242.87 1485.27 1249.51C1485.27 1249.51 1485.25 1249.66 1485.49 1250.09C1487.04 1252.06 1488.36 1253.61 1489.67 1255.15C1489.67 1255.15 1490.2 1255.03 1490.07 1255.39C1490.21 1256.15 1490.56 1256.46 1490.99 1256.66C1490.99 1256.66 1490.99 1256.77 1491.18 1257.07C1491.62 1257.72 1491.96 1257.96 1492.38 1258.09C1492.38 1258.09 1492.39 1258.19 1492.59 1258.49C1493.05 1259.14 1493.39 1259.38 1493.82 1259.49C1493.82 1259.49 1493.84 1259.58 1494.03 1259.87C1494.49 1260.53 1494.84 1260.77 1495.28 1260.9C1495.28 1260.9 1495.56 1260.55 1495.65 1261.05C1496.15 1261.78 1496.56 1262.02 1496.98 1262.26C1496.98 1262.26 1496.98 1262.08 1497.09 1262.44C1497.65 1263.04 1498.1 1263.29 1498.56 1263.54C1498.56 1263.54 1498.54 1263.4 1498.68 1263.77C1499.93 1264.95 1501.04 1265.76 1502.14 1266.57C1502.14 1266.57 1502.19 1266.82 1502.6 1267.14C1504.7 1268.56 1506.4 1269.66 1508.09 1270.76C1508.19 1270.55 1508.29 1270.33 1508.56 1270.8C1526.68 1282.53 1545.77 1290.72 1566.51 1294.84C1567.15 1295.04 1567.79 1295.24 1569.38 1295.69C1588.67 1297.6 1607 1300.12 1625.37 1300.52C1633.01 1300.68 1640.75 1296.31 1648.45 1294C1648.45 1294 1648.36 1293.96 1648.74 1293.91C1649.59 1293.27 1650.08 1292.69 1650.56 1292.11C1650.56 1292.11 1650.75 1292.09 1651.14 1291.76C1652.62 1289.65 1653.7 1287.88 1654.78 1286.1C1654.78 1286.1 1654.48 1286 1654.98 1285.58C1657.49 1279.33 1658.51 1273.54 1654.64 1267.99C1654.64 1267.99 1654.62 1268.12 1654.57 1267.7C1653.93 1266.66 1653.34 1266.05 1652.76 1265.44C1652.76 1265.44 1652.75 1265.56 1652.66 1265.11C1650.86 1263.39 1649.14 1262.11 1647.42 1260.82C1647.42 1260.82 1647.41 1260.94 1647.14 1260.55C1641.83 1258.66 1636.83 1256.16 1631.71 1255.88C1619.04 1255.18 1607.58 1259.65 1596.95 1266.31C1596.95 1266.31 1597.02 1266.65 1596.46 1266.63C1574.78 1277.09 1556.28 1279.75 1546.9 1273.96C1551.7 1270.67 1556.65 1267.28 1561.61 1263.88C1561.61 1263.88 1561.87 1263.9 1562.15 1263.7C1562.77 1263.3 1562.98 1263.02 1563.06 1262.65C1563.06 1262.65 1563.45 1262.57 1563.71 1262.33C1564.24 1261.94 1564.39 1261.7 1564.41 1261.38C1564.41 1261.38 1564.91 1261.21 1565.19 1260.93C1565.72 1260.51 1565.83 1260.29 1565.8 1260.01C1565.8 1260.01 1566.29 1259.83 1566.58 1259.5C1567.15 1259 1567.29 1258.74 1567.3 1258.41C1567.3 1258.41 1567.63 1258.35 1568 1257.95C1569.46 1255.86 1570.55 1254.19 1571.64 1252.51C1571.64 1252.51 1571.78 1252.45 1572.07 1252.01C1581.26 1235.12 1578.94 1219.51 1568.85 1204.48C1568.85 1204.48 1568.85 1204.37 1568.62 1203.95C1567.05 1201.98 1565.7 1200.43 1564.36 1198.88C1564.36 1198.88 1564.32 1199.01 1564.24 1198.65C1563.74 1197.95 1563.33 1197.62 1562.92 1197.29C1562.92 1197.29 1562.92 1197.5 1562.85 1197.14C1562.37 1196.47 1561.95 1196.17 1561.54 1195.86C1561.54 1195.86 1561.54 1196.05 1561.48 1195.69C1561.01 1195.04 1560.6 1194.74 1560.2 1194.45C1560.2 1194.45 1560.2 1194.57 1560.06 1194.22C1559.49 1193.61 1559.06 1193.34 1558.62 1193.07C1558.62 1193.07 1558.62 1193.32 1558.56 1192.95C1558.05 1192.29 1557.6 1192.01 1557.14 1191.73C1557.14 1191.73 1557.17 1191.88 1557.01 1191.49C1555.24 1189.83 1553.62 1188.58 1552 1187.32C1552 1187.32 1551.95 1187.18 1551.7 1186.91C1551.13 1186.32 1550.75 1186.13 1550.3 1186.08C1550.3 1186.08 1550.05 1186.38 1549.84 1185.87C1543.12 1182.22 1536.88 1178.26 1530.08 1176.08C1506.83 1168.62 1484.13 1168.83 1463.03 1183.07C1463.03 1183.07 1462.89 1183.06 1462.45 1183.33C1459.48 1186.23 1456.95 1188.85 1454.41 1191.48C1454.41 1191.48 1454.25 1191.53 1453.96 1191.81C1453.47 1192.52 1453.27 1192.94 1453.07 1193.36C1453.07 1193.36 1453.18 1193.33 1452.8 1193.6C1446.26 1202.42 1443.92 1212.32 1444.02 1222.49C1444.29 1250.64 1441.41 1278.2 1430.58 1304.96C1421.01 1328.58 1410.43 1351.41 1402.94 1375.21C1395.16 1399.88 1395.92 1425.16 1407.07 1449.31C1407.07 1449.31 1407.15 1449.22 1407.13 1449.74C1410.86 1456.99 1414.61 1463.72 1418.36 1470.45C1418.36 1470.45 1418.37 1470.34 1418.41 1470.73C1418.96 1471.75 1419.48 1472.37 1420.01 1472.99C1420.01 1472.99 1419.98 1473.01 1420.05 1473.41C1420.46 1474.61 1420.8 1475.42 1421.15 1476.22C1420.58 1476.28 1420 1476.33 1419.43 1476.38C1419.43 1476.38 1419.36 1476.22 1419 1475.94C1417.43 1474.97 1416.23 1474.29 1415.04 1473.61C1414.87 1473.87 1414.71 1474.13 1414.52 1473.68C1413.54 1472.42 1412.59 1471.88 1411.64 1471.34C1411.55 1470.85 1411.26 1470.52 1410.23 1469.9C1408.46 1468.68 1407.26 1467.89 1406.05 1467.09C1406.05 1467.09 1406.05 1467.2 1405.97 1466.85C1405.29 1466.05 1404.69 1465.61 1404.09 1465.16C1404.09 1465.16 1404.01 1464.86 1403.73 1464.62C1403.23 1464.08 1402.93 1463.9 1402.56 1463.83C1402.56 1463.83 1402.54 1463.67 1402.31 1463.38C1401.83 1462.76 1401.49 1462.53 1401.08 1462.42C1401.08 1462.42 1401.07 1462.29 1400.8 1461.91C1398.9 1459.95 1397.27 1458.37 1395.64 1456.8C1395.64 1456.8 1395.63 1456.57 1395.31 1456.15C1393.04 1453.42 1391.08 1451.11 1389.13 1448.8C1389.13 1448.8 1389.09 1448.94 1389.08 1448.51C1388.14 1446.92 1387.2 1445.77 1386.27 1444.61C1386.27 1444.61 1386.23 1444.73 1386.19 1444.25C1373.48 1421.93 1369.04 1398.55 1371.63 1373.43C1373.69 1353.53 1379.98 1334.98 1388.09 1317.03C1400.59 1289.36 1408.85 1260.82 1408.52 1230.19C1408.35 1214.47 1411.33 1199.47 1418.72 1185.47C1418.72 1185.47 1418.61 1185.46 1418.97 1185.22C1419.65 1184.22 1419.96 1183.44 1420.28 1182.67C1420.28 1182.67 1420.15 1182.69 1420.55 1182.52C1422.31 1180.4 1423.66 1178.46 1425.02 1176.52C1425.02 1176.52 1425.28 1176.47 1425.53 1176.2C1426.1 1175.69 1426.3 1175.36 1426.38 1174.96C1426.38 1174.96 1426.48 1174.94 1426.77 1174.76C1427.4 1174.3 1427.62 1173.95 1427.71 1173.53C1427.71 1173.53 1427.84 1173.51 1428.18 1173.25C1429.2 1172.21 1429.87 1171.44 1430.55 1170.67C1430.55 1170.67 1430.64 1170.66 1430.95 1170.49C1431.65 1170.07 1431.9 1169.72 1432.02 1169.27C1432.02 1169.27 1432.04 1169.22 1432.36 1169.1C1433.02 1168.76 1433.25 1168.45 1433.36 1168.05C1433.36 1168.05 1433.58 1168.06 1433.99 1167.77C1435.92 1166.21 1437.44 1164.93 1438.95 1163.65C1438.95 1163.65 1438.92 1163.52 1439.38 1163.39C1440.89 1162.35 1441.96 1161.43 1443.03 1160.51C1443.03 1160.51 1442.88 1160.42 1443.34 1160.41C1444.99 1159.57 1446.18 1158.75 1447.38 1157.93C1447.38 1157.93 1447.13 1157.59 1447.72 1157.64C1453.01 1155.6 1457.6 1153.18 1462.43 1151.46C1495.72 1139.59 1527.8 1143.25 1558.84 1159.34C1558.84 1159.34 1558.94 1159.05 1559.16 1159.47C1559.86 1160.02 1560.34 1160.16 1560.83 1160.3C1560.83 1160.3 1560.79 1160.18 1560.99 1160.57C1562.73 1161.84 1564.27 1162.73 1565.82 1163.61C1565.82 1163.61 1565.85 1163.69 1566.15 1164.01C1567.39 1164.85 1568.34 1165.36 1569.28 1165.88C1569.28 1165.88 1569.26 1165.77 1569.41 1166.14C1570.27 1166.93 1570.98 1167.35 1571.7 1167.76C1571.7 1167.76 1571.82 1167.53 1571.96 1167.98C1573.69 1169.65 1575.3 1170.87 1576.9 1172.09C1576.9 1172.09 1576.94 1172.27 1577.17 1172.54C1577.64 1173.13 1577.96 1173.33 1578.36 1173.4C1578.36 1173.4 1578.39 1173.58 1578.65 1173.88C1579.21 1174.54 1579.6 1174.76 1580.07 1174.83C1580.07 1174.83 1580.08 1174.72 1580.19 1175.06C1580.71 1175.67 1581.12 1175.94 1581.54 1176.2C1581.54 1176.2 1581.55 1176.06 1581.63 1176.42C1582.14 1177.05 1582.56 1177.33 1582.98 1177.6C1582.98 1177.6 1582.99 1177.42 1583.03 1177.77C1583.45 1178.42 1583.82 1178.72 1584.2 1179.02C1584.35 1178.84 1584.51 1178.66 1584.59 1179.1C1585.1 1180.26 1585.69 1180.79 1586.28 1181.32C1586.28 1181.78 1586.46 1182.14 1587.22 1182.95C1588.39 1184.3 1589.16 1185.13 1589.93 1185.95C1589.93 1185.95 1590.2 1185.72 1590.16 1186.15C1590.46 1186.89 1590.81 1187.21 1591.16 1187.52C1591.4 1187.45 1591.63 1187.39 1591.7 1187.86C1592.5 1189.61 1593.46 1190.82 1594.41 1192.03C1594.41 1192.03 1594.37 1192.31 1594.57 1192.76C1595.44 1194.1 1596.1 1195 1596.75 1195.89C1596.99 1195.77 1597.24 1195.65 1597.31 1196.2C1600.18 1204.72 1603.46 1212.49 1606.14 1220.46C1607.31 1223.93 1608.77 1225.35 1612.52 1225.11C1629.66 1223.99 1645.51 1228.42 1660.33 1236.86C1660.33 1236.86 1660.53 1236.66 1660.69 1237.12C1661.79 1238.13 1662.72 1238.67 1663.66 1239.21C1663.66 1239.21 1663.69 1239.09 1663.81 1239.47C1664.55 1240.28 1665.19 1240.7 1665.82 1241.12C1665.82 1241.12 1665.86 1241.27 1666.1 1241.55C1666.63 1242.2 1667.01 1242.43 1667.47 1242.52C1667.47 1242.52 1667.47 1242.4 1667.58 1242.74C1668.11 1243.34 1668.53 1243.6 1668.95 1243.85C1668.95 1243.85 1668.96 1243.71 1669.04 1244.07C1669.53 1244.72 1669.94 1245.01 1670.35 1245.3C1670.35 1245.3 1670.36 1245.12 1670.4 1245.47C1670.8 1246.11 1671.17 1246.4 1671.54 1246.69C1671.54 1246.69 1671.56 1246.75 1671.71 1247.07C1672.11 1247.78 1672.45 1248.04 1672.9 1248.17C1673.04 1247.91 1673.18 1247.65 1673.26 1248.15C1673.75 1249.45 1674.32 1250 1674.89 1250.54C1674.89 1250.54 1674.92 1250.43 1675 1250.93C1677.07 1255.62 1679.49 1259.66 1680.95 1264.03C1685.81 1278.65 1681.32 1292.03 1674.84 1305.04C1674.84 1305.04 1674.96 1305.05 1674.56 1305.26C1673.28 1306.98 1672.39 1308.5 1671.51 1310.02C1671.51 1310.02 1671.37 1310.06 1671.04 1310.41C1669.58 1312.41 1668.46 1314.06 1667.33 1315.72C1667.33 1315.72 1667.32 1315.78 1666.96 1316.05C1666.02 1317.26 1665.44 1318.21 1664.86 1319.15C1664.86 1319.15 1665.07 1319.14 1664.7 1319.22C1664.1 1319.77 1663.88 1320.25 1663.66 1320.73C1663.66 1320.73 1663.8 1320.7 1663.4 1320.78C1662.55 1321.51 1662.08 1322.17 1661.62 1322.83C1661.74 1323.04 1661.87 1323.25 1661.51 1323.32C1660.79 1323.59 1660.56 1324 1660.33 1324.41C1660.33 1324.41 1660.46 1324.43 1660.12 1324.55C1659.53 1325.12 1659.28 1325.56 1659.04 1326.01C1659.04 1326.01 1659.22 1326 1658.82 1326.09C1657.73 1327.09 1657.04 1328 1656.35 1328.91C1656.35 1328.91 1656.55 1328.93 1656.16 1328.99C1655.48 1329.52 1655.17 1329.98 1654.87 1330.44Z" fill="#FDFCFC"/>
<path d="M763.467 673.558C763.491 673.836 763.515 674.114 763.798 675.051C764.379 676.564 764.701 677.417 765.022 678.27C765.022 678.27 764.985 678.347 765.029 678.938C765.839 682.711 766.607 685.894 767.321 689.632C767.464 691.656 767.66 693.123 767.776 695.163C767.722 701.994 767.75 708.253 767.607 714.948C767.468 716.003 767.5 716.622 767.337 717.757C766.73 721.202 766.318 724.132 765.752 727.217C765.446 727.666 765.478 727.939 765.41 728.681C765.038 729.916 764.95 730.66 764.705 731.734C764.577 732.305 764.606 732.546 764.406 733.252C763.844 735.392 763.51 737.068 763.056 738.773C762.937 738.802 763.1 739.159 762.814 739.702C761.103 744.715 759.854 749.25 758.229 753.646C740.335 802.046 721.537 850.131 704.7 898.895C689.875 941.832 677.226 985.52 663.331 1029.38C656.344 1064.1 648.805 1098.18 643.162 1132.57C636.914 1170.65 634.946 1209.2 639.089 1247.64C641.189 1267.13 645.786 1286.38 649.978 1305.59C650.727 1309.01 654.628 1313.38 657.806 1314.11C660.128 1314.64 663.653 1309.91 666.642 1307.52C666.642 1307.52 666.759 1307.48 667.047 1307.25C667.686 1306.72 667.898 1306.34 667.972 1305.89C667.972 1305.89 667.623 1305.53 668.177 1305.44C669.921 1303.72 671.112 1302.08 672.303 1300.44C672.303 1300.44 672.418 1300.4 672.773 1300.06C676.601 1294.74 680.074 1289.75 683.546 1284.77C683.31 1284.65 683.073 1284.54 683.516 1284.31C684.714 1283.24 685.233 1282.28 685.752 1281.32C685.752 1281.32 685.655 1281.32 686.064 1281.11C689.253 1276.54 692.033 1272.2 694.814 1267.85C694.814 1267.85 694.598 1267.7 695.041 1267.46C696.196 1266.02 696.908 1264.81 697.619 1263.6C697.619 1263.6 697.204 1263.33 697.765 1263.13C703.739 1254.23 709.152 1245.53 714.565 1236.84C714.565 1236.84 714.25 1236.67 714.746 1236.39C718.766 1230.25 722.292 1224.39 725.818 1218.52C725.818 1218.52 725.777 1218.44 726.146 1218.11C729.113 1213.32 731.71 1208.86 734.307 1204.4C734.307 1204.4 733.91 1204.24 734.432 1203.95C743.467 1188.66 751.98 1173.67 760.493 1158.67C760.493 1158.67 760.395 1158.69 760.796 1158.45C763.026 1154.78 764.855 1151.35 766.685 1147.91C766.479 1147.73 766.273 1147.55 766.706 1147.32C771.353 1139.98 775.361 1132.69 779.37 1125.39C779.133 1125.24 778.897 1125.09 779.351 1124.82C785.011 1115.59 789.979 1106.47 794.947 1097.34C794.947 1097.34 795.038 1097.3 795.346 1096.91C798.658 1091.14 801.661 1085.75 804.665 1080.37C804.665 1080.37 804.795 1080.34 805.158 1079.93C808.418 1075.62 812.574 1072.44 816.736 1075.65C819.628 1077.88 820.992 1082.79 821.815 1086.76C822.386 1089.52 821.092 1092.77 820.258 1095.68C814.077 1117.32 807.968 1138.98 801.512 1160.53C795.069 1182.04 788.249 1203.44 781.372 1225.25C780.733 1227.24 780.316 1228.87 779.614 1230.91C779.2 1231.99 779.072 1232.65 778.692 1233.77C768.509 1268.59 758.122 1302.82 748.82 1337.34C743.295 1357.84 739.48 1378.81 734.897 1399.56C734.582 1402.4 734.268 1405.24 733.532 1408.71C732.913 1409.72 732.967 1410.02 733.271 1410.24C732.99 1411.02 732.708 1411.81 732.269 1413.77C727.295 1449.24 725.489 1483.61 729.26 1518.76C730.792 1532.84 732.409 1546.28 734.024 1559.73C736.729 1582.25 739.813 1604.81 728.595 1626.19C728.595 1626.19 728.765 1626.28 728.35 1626.47C726.309 1628.85 724.684 1631.03 723.059 1633.21C723.059 1633.21 723.313 1633.43 722.834 1633.46C721.619 1634.31 720.883 1635.13 720.147 1635.94C720.147 1635.94 720.641 1636.26 720.037 1636.23C718.893 1636.76 718.354 1637.32 717.431 1637.99C716.216 1638.74 715.384 1639.39 714.552 1640.03C714.726 1640.27 714.899 1640.51 714.347 1640.57C704.25 1645.69 694.181 1647.91 683.431 1648.07C663.415 1648.37 646.1 1640.94 629.815 1630.22C629.815 1630.22 629.78 1630.34 629.58 1629.97C627.711 1628.37 626.042 1627.14 624.374 1625.91C624.374 1625.91 624.347 1625.82 624.021 1625.45C618.607 1620.27 613.518 1615.44 608.43 1610.62C608.43 1610.62 608.407 1610.86 608.397 1610.48C608 1609.75 607.615 1609.39 607.229 1609.03C607.229 1609.03 607.234 1609.2 607.164 1608.84C606.699 1608.16 606.305 1607.84 605.911 1607.53C605.911 1607.53 605.931 1607.67 605.817 1607.25C604.395 1605.24 603.087 1603.66 601.779 1602.07C601.53 1602.29 601.281 1602.51 601.207 1601.96C585.995 1581.05 575.113 1558.45 565.778 1535.08C539.595 1469.52 527.106 1400.87 521.072 1330.93C515.285 1263.87 518.014 1196.92 526.41 1129.84C526.569 1128.53 526.569 1127.55 526.795 1126C527.16 1123.78 527.3 1122.14 527.627 1120.04C528.796 1110.99 529.777 1102.39 530.759 1093.79C531.143 1093.11 531.527 1092.43 532.033 1090.81C544.359 1032.81 556.05 975.638 568.905 918.728C582.7 857.654 598.868 797.093 611.612 735.811C622.555 683.186 620.706 631.146 592.07 582.959C590.285 579.956 591.713 575.041 591.646 571.016C591.646 571.016 591.433 570.883 591.96 570.732C598.168 568.859 604.032 565.258 609.496 565.787C623.132 567.107 636.896 569.222 650.044 572.989C672.307 579.368 691.767 591.679 710.451 605.136C710.451 605.136 710.455 604.995 710.612 605.387C712.417 607.012 714.065 608.244 715.714 609.476C715.714 609.476 715.751 609.65 716.11 610.007C719.979 613.357 723.49 616.35 727.001 619.342C727.001 619.342 727.021 619.482 727.229 619.768C727.703 620.399 728.05 620.612 728.478 620.693C728.478 620.693 728.498 620.798 728.682 621.09C729.121 621.743 729.462 621.98 729.889 622.092C729.889 622.092 729.904 622.207 730.093 622.496C730.542 623.135 730.884 623.354 731.311 623.441C731.311 623.441 731.324 623.602 731.505 623.889C731.905 624.534 732.215 624.774 732.616 624.899C732.616 624.899 732.625 625.116 732.829 625.389C733.244 625.995 733.539 626.214 733.918 626.321C733.918 626.321 733.915 626.557 734.242 626.97C736.427 629.343 738.285 631.302 740.144 633.261C740.144 633.261 740.161 633.076 740.191 633.437C740.602 634.116 740.984 634.435 741.365 634.754C741.365 634.754 741.562 634.456 741.55 634.911C741.782 635.794 742.138 636.084 742.607 636.236C742.607 636.236 743.085 636.272 743.016 636.667C743.883 638.106 744.82 639.151 745.756 640.196C745.756 640.196 745.784 640.075 745.803 640.425C746.149 641.127 746.475 641.479 746.801 641.831C746.801 641.831 746.888 641.845 747.057 642.303C748.958 645.233 750.691 647.704 752.424 650.176C752.424 650.176 752.407 650.307 752.629 650.791C755.516 656.358 758.18 661.44 760.946 666.974C761.854 669.471 762.661 671.514 763.467 673.558Z" fill="#FDFCFC"/>
</svg>
